<?xml version="1.0" encoding="utf-8"?>
<!-- Generator: Adobe Illustrator 16.0.0, SVG Export Plug-In . SVG Version: 6.00 Build 0)  -->
<!DOCTYPE svg PUBLIC "-//W3C//DTD SVG 1.1//EN" "http://www.w3.org/Graphics/SVG/1.1/DTD/svg11.dtd">
<svg version="1.1" id="Layer_1" xmlns="http://www.w3.org/2000/svg" xmlns:xlink="http://www.w3.org/1999/xlink" x="0px" y="0px"
	 width="1080px" height="336.585px" viewBox="0 0 1080 336.585" enable-background="new 0 0 1080 336.585" xml:space="preserve">
<g>
	<path fill-rule="evenodd" clip-rule="evenodd" fill="#FFFFFF" d="M785.105,420.91c-165.949,0-331.914,0-497.881,0
		c-0.002-165.962-0.002-331.923-0.002-497.913c165.94,0,331.885,0,497.883,0C785.105,88.948,785.105,254.93,785.105,420.91z
		 M393.199,29.008c-1.304,0.023-2.623-0.068-3.91,0.089c-6.458,0.792-11.474,3.62-13.919,10.025
		c-0.475,1.245-1.048,2.462-1.682,3.635c-5.482,10.147-12.166,19.475-20.106,27.799c-7.517,7.88-13.631,16.621-18.22,26.459
		c-0.529,1.136-1.292,2.424-1.17,3.559c0.708,6.631,1.596,13.244,2.547,19.844c0.211,1.462,0.919,2.854,1.398,4.277
		c-4.299-3.193-6.394-7.885-8.969-12.43c-1.985,5.806-3.86,11.584-5.433,17.445c-0.878,3.27-0.184,6.55,1.756,9.314
		c2.449,3.489,4.958,6.984,7.831,10.12c9.316,10.172,20.146,18.524,31.765,25.91c9.044,5.749,18.751,9.782,29.457,10.651
		c7.64,0.619,15.346,0.426,23.023,0.574c2.091,0.041,4.184,0.006,6.388,0.006c0.194,1.2,0.378,2.454,0.603,3.699
		c2.062,11.48,6.279,22.194,12.519,31.96c5.443,8.52,11.616,16.574,17.482,24.822c1.555,2.188,3.164,4.335,4.748,6.5
		c-0.263-7.358,0.583-14.423,3.371-21.112c3.41-8.185,9.14-15.241,12.968-16.351c-3.041,3.757-4.65,8.119-5.989,12.578
		c-2.244,7.473-3.161,15.158-1.888,22.852c0.918,5.557,2.467,11.053,4.224,16.417c2.108,6.438,4.488,12.747,3.758,19.713
		c-0.044,0.417,0.616,1.119,1.105,1.345c1.379,0.636,2.902,0.965,4.257,1.64c6.387,3.175,10.092,8.53,12.245,15.168
		c1.038,3.201,2.127,6.402,3.495,9.47c0.741,1.663,1.643,3.609,3.846,3.886c5.876,0.733,11.749,1.655,17.652,1.967
		c6.551,0.346,13.139-0.094,19.699,0.154c11.125,0.422,22.17-0.114,33.128-2.074c1.009-0.182,2.344-0.828,2.757-1.647
		c1.734-3.44,3.5-6.924,4.66-10.58c2.799-8.816,7.694-15.454,17.043-17.931c1.149-0.305,0.995-1.059,1.045-1.894
		c0.197-3.295,0.003-6.697,0.782-9.855c1.278-5.173,3.302-10.155,4.831-15.271c1.999-6.685,3.347-13.526,2.766-20.527
		c-0.751-9.07-2.874-17.778-8.066-25.514c6.103,4.082,10.016,9.845,12.769,16.534c2.768,6.729,3.378,13.792,3.202,21.006
		c6.12-8.089,12.131-16.091,17.895-24.267c6.372-9.038,11.433-18.793,14.602-29.424c1.302-4.367,2.158-8.868,3.236-13.393
		c1.41,0,2.934,0.003,4.455-0.001c7.512-0.02,15.046,0.309,22.53-0.159c7.687-0.48,15.153-2.402,22.162-5.769
		c9.185-4.41,17.484-10.208,25.442-16.501c8.176-6.468,15.639-13.649,21.899-22.056c3.41-4.58,4.652-9.372,2.819-14.878
		c-1.226-3.678-2.316-7.401-3.501-11.094c-0.409-1.278-0.919-2.523-1.444-3.949c-2.484,4.903-4.396,9.789-8.732,13.058
		c0.314-1.596,1.046-3.03,1.347-4.549c0.863-4.356,1.719-8.728,2.244-13.133c0.317-2.685,0.774-5.736-0.146-8.114
		c-2.692-6.956-6.39-13.49-11.102-19.309c-4.768-5.889-9.999-11.401-14.794-17.271c-5.854-7.167-11.028-14.806-14.892-23.274
		c-0.734-1.608-1.563-3.24-2.667-4.603c-3.445-4.255-8.366-5.583-13.475-5.668c-5.954-0.101-11.963,0.096-17.869,0.806
		c-5.018,0.604-9.983,1.914-14.862,3.301c-3.511,0.998-5.787,3.562-5.871,7.41c-0.116,5.356-0.081,10.717,0.022,16.074
		c0.038,1.997,1.394,3.108,3.438,2.978c1.509-0.097,3-0.476,4.498-0.73c-0.069,0.143-0.141,0.286-0.212,0.428
		c1.001,0.451,2.019,1.305,2.998,1.263c1.856-0.079,3.828-1.29,5.505-0.917c3.089,0.688,5.334-0.151,7.271-2.309
		c3.093,1.883,6.004,0.2,6.997-2.868c1.327-4.101,1.625-8.112-1.713-11.605c2.5,0.977,3.495,3.199,4.776,5.573
		c2.133-1.263,4.179-2.473,6.292-3.723c0.703,1.808,1.464,3.694,2.173,5.601c4.354,11.707,7.235,23.725,7.859,36.252
		c0.189,3.795,0.437,7.635,1.196,11.343c1.481,7.236,3.229,14.439,7.729,20.567c0.798,1.087,1.663,2.127,2.495,3.188
		c-2.11-0.77-3.991-1.806-5.73-3.041c-2.904-2.062-5.594-4.445-8.593-6.346c-6.437-4.081-13.745-4.769-21.137-4.875
		c-5.423-0.079-10.428,1.433-15.108,4.129c-4.025,2.319-7.405,5.321-9.856,9.335c-0.771-0.473-1.408-0.889-2.068-1.26
		c-0.722-0.405-1.436-0.849-2.204-1.142c-9.623-3.669-19.389-4.083-29.177-0.858c-2.55,0.841-4.844,2.454-7.268,3.688
		c-5.261,2.679-10.332,5.909-15.855,7.842c-4.786,1.675-10.078,1.955-15.169,2.696c-3.567,0.52-7.172,0.779-10.761,1.153
		c-0.077-0.203-0.153-0.406-0.23-0.609c3.765-1.54,7.53-3.08,11.385-4.656c-0.978-3.619-3.219-6.283-6.724-8.615
		c0,2.956,0,5.5,0,8.043c-0.256,0.055-0.512,0.109-0.767,0.164c-0.84-2.422-1.989-4.787-2.451-7.279
		c-0.824-4.444-0.563-8.814,1.836-12.921c1.743-2.984,2.797-6.268,2.894-9.792c0.055-1.97,0.175-3.937,0.266-5.905
		c3.391,0.191,4.043-0.23,4.617-3.594c1.017-5.96,1.839-11.953,2.869-17.91c0.737-4.27-0.097-5.275-4.394-4.606
		c0-0.71,0.001-1.396,0-2.082c-0.003-3.701,0.073-7.403-0.024-11.102c-0.411-15.562-10.97-25.882-25.564-28.564
		c-7.368-1.354-14.758-1.038-21.887,1.483c-9.556,3.38-16.358,9.68-18.827,19.689c-1.052,4.267-0.973,8.825-1.266,13.261
		c-0.162,2.437-0.029,4.894-0.029,7.366c-3.852-0.837-4.939-0.018-4.43,3.482c0.916,6.293,1.899,12.578,2.974,18.847
		c0.599,3.498,1.167,3.855,4.603,3.769c0.038,0.12,0.104,0.239,0.11,0.361c0.022,0.509,0.049,1.021,0.033,1.53
		c-0.152,4.929,0.588,9.691,3.162,13.963c1.984,3.293,2.233,6.845,2.079,10.495c-0.147,3.474-1.254,6.631-3.712,9.36
		c0-2.565,0-5.13,0-8.043c-3.334,2.393-5.661,4.998-6.606,8.753c3.855,1.578,7.97,2.249,11.535,5.154
		c-4.958-0.529-9.442-1.155-13.948-1.457c-8.898-0.598-17.006-3.385-24.576-8.055c-3.667-2.262-7.36-4.824-11.405-6.068
		c-11.33-3.486-22.46-2.661-33.009,3.252c-0.654-0.896-1.284-1.938-2.084-2.827c-6.738-7.469-15.126-10.868-25.197-10.448
		c-9.402,0.392-17.896,2.791-24.965,9.434c-2.242,2.107-5.153,3.502-7.758,5.223c-0.022-0.784,0.174-1.195,0.463-1.527
		c7.045-8.098,9.584-18.212,10.322-28.265c0.902-12.284,2.231-24.321,6.115-36.014c1.305-3.928,2.776-7.802,4.134-11.596
		c2.304,1.354,4.307,2.532,6.306,3.707c2.77-4.612,2.99-4.856,4.796-5.396c-3.715,4.016-2.773,8.718-1.438,11.962
		c1.283,3.122,3.837,3.998,6.825,2.546c2.523,2.224,4.081,2.756,6.318,2.358c0.669-0.119,1.451-0.054,2.089,0.18
		c3.396,1.25,5.662,0.821,7.497-1.505c1.893,1.208,3.992,1.572,5.984,0.676c1.867-0.839,1.647-2.82,1.645-4.552
		c-0.006-4.022-0.021-8.044,0.005-12.065c0.035-5.651-1.841-8.167-7.245-9.984c-6.219-2.091-12.653-2.87-19.141-3.345
		c-1.955-0.144-3.924-0.077-5.887-0.106C396.357,29.01,394.778,29.009,393.199,29.008z M596.854,290.021
		c-5.55,3.175-9.105,7.406-10.736,12.987c-1.432,4.9-2.451,9.908-6.126,13.828c0.11,0.147,0.222,0.296,0.332,0.444
		c5.837-2.078,11.673-4.154,17.616-6.271C597.571,303.896,597.223,297.165,596.854,290.021z M492.096,317.385
		c0.092-0.174,0.183-0.348,0.274-0.522c-3.176-3.605-4.573-7.953-5.747-12.501c-0.684-2.651-2.006-5.232-3.49-7.558
		c-1.775-2.78-4.188-5.07-7.647-6.691c-0.309,6.812-0.625,13.35-0.86,19.891c-0.014,0.396,0.525,1.03,0.946,1.19
		C481.066,313.295,486.584,315.332,492.096,317.385z"/>
	<path fill-rule="evenodd" clip-rule="evenodd" d="M397.937,29.012c1.963,0.029,3.932-0.038,5.887,0.106
		c6.488,0.475,12.922,1.254,19.141,3.345c5.404,1.817,7.28,4.333,7.245,9.984c-0.026,4.021-0.012,8.043-0.005,12.065
		c0.002,1.731,0.222,3.712-1.645,4.552c-1.992,0.896-4.091,0.532-5.984-0.676c-1.835,2.327-4.101,2.755-7.497,1.505
		c-0.638-0.234-1.42-0.299-2.089-0.18c-2.237,0.398-3.795-0.134-6.318-2.358c-2.988,1.452-5.542,0.575-6.825-2.546
		c-1.335-3.244-2.276-7.947,1.438-11.962c-1.806,0.54-2.026,0.784-4.796,5.396c-2-1.175-4.002-2.353-6.306-3.707
		c-1.357,3.794-2.829,7.668-4.134,11.596c-3.884,11.692-5.213,23.73-6.115,36.014c-0.738,10.053-3.277,20.167-10.322,28.265
		c-0.289,0.332-0.485,0.744-0.463,1.527c2.605-1.721,5.516-3.116,7.758-5.223c7.069-6.644,15.563-9.042,24.965-9.434
		c10.071-0.42,18.459,2.979,25.197,10.448c0.8,0.889,1.43,1.931,2.084,2.827c10.548-5.913,21.679-6.738,33.009-3.252
		c4.045,1.245,7.738,3.806,11.405,6.068c7.57,4.669,15.678,7.457,24.576,8.055c4.506,0.302,8.99,0.928,13.948,1.457
		c-3.564-2.905-7.68-3.577-11.535-5.154c0.946-3.755,3.272-6.36,6.606-8.753c0,2.913,0,5.479,0,8.043
		c2.458-2.729,3.564-5.886,3.712-9.36c0.154-3.65-0.095-7.201-2.079-10.495c-2.573-4.272-3.313-9.034-3.162-13.963
		c0.016-0.51-0.011-1.021-0.033-1.53c-0.006-0.122-0.072-0.241-0.111-0.36c-3.435,0.086-4.003-0.272-4.602-3.77
		c-1.074-6.269-2.058-12.553-2.974-18.847c-0.509-3.5,0.578-4.319,4.43-3.482c0-2.473-0.133-4.93,0.029-7.366
		c0.293-4.436,0.214-8.995,1.266-13.261c2.469-10.009,9.271-16.31,18.827-19.689c7.129-2.521,14.519-2.838,21.887-1.483
		c14.595,2.682,25.153,13.003,25.564,28.564c0.098,3.698,0.021,7.401,0.024,11.102c0.001,0.686,0,1.372,0,2.082
		c4.297-0.668,5.131,0.337,4.394,4.606c-1.03,5.958-1.853,11.95-2.869,17.91c-0.574,3.364-1.227,3.785-4.617,3.594
		c-0.091,1.968-0.211,3.935-0.266,5.905c-0.097,3.525-1.15,6.809-2.894,9.792c-2.399,4.107-2.66,8.477-1.836,12.921
		c0.462,2.492,1.611,4.856,2.451,7.279c0.255-0.054,0.511-0.109,0.767-0.164c0-2.544,0-5.088,0-8.043
		c3.505,2.332,5.746,4.996,6.724,8.615c-3.854,1.577-7.62,3.117-11.385,4.656c0.077,0.204,0.153,0.406,0.23,0.609
		c3.589-0.375,7.193-0.633,10.761-1.153c5.091-0.742,10.383-1.021,15.169-2.696c5.523-1.933,10.595-5.163,15.855-7.842
		c2.424-1.234,4.718-2.847,7.268-3.688c9.788-3.226,19.554-2.811,29.177,0.858c0.769,0.293,1.482,0.736,2.204,1.142
		c0.66,0.372,1.297,0.787,2.068,1.26c2.451-4.014,5.831-7.016,9.856-9.335c4.681-2.696,9.686-4.208,15.108-4.129
		c7.392,0.107,14.7,0.795,21.137,4.875c2.999,1.901,5.688,4.284,8.593,6.346c1.739,1.235,3.62,2.271,5.73,3.041
		c-0.832-1.062-1.697-2.101-2.495-3.188c-4.5-6.128-6.247-13.331-7.729-20.567c-0.76-3.708-1.007-7.548-1.196-11.343
		c-0.624-12.527-3.506-24.545-7.859-36.252c-0.709-1.906-1.47-3.793-2.173-5.601c-2.113,1.25-4.159,2.46-6.292,3.723
		c-1.281-2.374-2.276-4.596-4.776-5.573c3.338,3.493,3.04,7.504,1.713,11.605c-0.993,3.067-3.904,4.75-6.997,2.868
		c-1.937,2.158-4.182,2.997-7.271,2.309c-1.677-0.373-3.648,0.838-5.505,0.917c-0.979,0.042-1.997-0.813-2.998-1.263
		c0.071-0.143,0.143-0.285,0.212-0.428c-1.498,0.254-2.989,0.633-4.498,0.73c-2.044,0.13-3.399-0.981-3.438-2.978
		c-0.104-5.357-0.139-10.718-0.022-16.074c0.084-3.848,2.36-6.412,5.871-7.41c4.879-1.387,9.845-2.698,14.862-3.301
		c5.906-0.71,11.915-0.906,17.869-0.806c5.108,0.086,10.029,1.413,13.475,5.668c1.104,1.363,1.933,2.994,2.667,4.603
		c3.863,8.468,9.038,16.107,14.892,23.274c4.795,5.87,10.026,11.382,14.794,17.271c4.712,5.819,8.409,12.354,11.102,19.309
		c0.92,2.378,0.463,5.429,0.146,8.114c-0.525,4.405-1.381,8.777-2.244,13.133c-0.301,1.519-1.032,2.953-1.347,4.549
		c4.337-3.269,6.248-8.154,8.732-13.058c0.525,1.425,1.035,2.67,1.444,3.949c1.185,3.693,2.275,7.416,3.501,11.094
		c1.833,5.506,0.591,10.298-2.819,14.878c-6.261,8.406-13.724,15.588-21.899,22.056c-7.958,6.293-16.258,12.091-25.442,16.501
		c-7.009,3.366-14.476,5.288-22.162,5.769c-7.484,0.468-15.019,0.14-22.53,0.159c-1.521,0.004-3.045,0.001-4.455,0.001
		c-1.078,4.524-1.935,9.025-3.236,13.393c-3.169,10.631-8.229,20.386-14.602,29.424c-5.764,8.176-11.774,16.178-17.895,24.267
		c0.176-7.214-0.435-14.276-3.202-21.006c-2.753-6.689-6.666-12.452-12.769-16.534c5.192,7.735,7.315,16.443,8.066,25.514
		c0.581,7.001-0.767,13.843-2.766,20.527c-1.529,5.116-3.553,10.099-4.831,15.271c-0.779,3.158-0.585,6.561-0.782,9.855
		c-0.05,0.835,0.104,1.589-1.045,1.894c-9.349,2.477-14.244,9.114-17.043,17.931c-1.16,3.656-2.926,7.14-4.66,10.58
		c-0.413,0.819-1.748,1.466-2.757,1.647c-10.958,1.96-22.003,2.496-33.128,2.074c-6.56-0.248-13.148,0.191-19.699-0.154
		c-5.903-0.312-11.775-1.233-17.652-1.967c-2.203-0.276-3.105-2.223-3.846-3.886c-1.368-3.067-2.458-6.269-3.495-9.47
		c-2.153-6.638-5.858-11.993-12.245-15.168c-1.355-0.675-2.878-1.004-4.257-1.64c-0.49-0.226-1.149-0.928-1.105-1.345
		c0.73-6.966-1.65-13.274-3.758-19.713c-1.756-5.364-3.305-10.86-4.224-16.417c-1.272-7.693-0.355-15.379,1.888-22.852
		c1.339-4.459,2.949-8.821,5.989-12.578c-3.828,1.109-9.558,8.166-12.968,16.351c-2.788,6.689-3.634,13.754-3.371,21.112
		c-1.584-2.165-3.193-4.313-4.748-6.5c-5.866-8.248-12.039-16.303-17.482-24.822c-6.24-9.766-10.457-20.479-12.519-31.96
		c-0.225-1.245-0.408-2.499-0.603-3.699c-2.205,0-4.297,0.035-6.388-0.006c-7.678-0.148-15.384,0.045-23.023-0.574
		c-10.706-0.869-20.412-4.902-29.457-10.651c-11.619-7.386-22.449-15.738-31.765-25.91c-2.873-3.136-5.382-6.631-7.831-10.12
		c-1.94-2.765-2.635-6.044-1.756-9.314c1.573-5.86,3.448-11.639,5.433-17.445c2.575,4.545,4.669,9.237,8.969,12.43
		c-0.479-1.423-1.187-2.814-1.398-4.277c-0.952-6.6-1.84-13.213-2.547-19.844c-0.122-1.135,0.641-2.423,1.17-3.559
		c4.588-9.839,10.703-18.58,18.22-26.459c7.94-8.324,14.624-17.652,20.106-27.799c0.633-1.173,1.207-2.391,1.682-3.635
		c2.445-6.405,7.461-9.232,13.919-10.025c1.287-0.157,2.606-0.065,3.91-0.089c0.279,0.247,0.562,0.489,0.836,0.741
		c1.798,1.653,1.797,1.653,3.404-0.184C397.602,29.378,397.77,29.195,397.937,29.012z M568.167,205.052
		c0.016,0.103,0.03,0.203,0.046,0.306c1.745-0.138,3.491-0.276,5.237-0.415c15.938-1.266,27.607-9.659,36.557-22.276
		c4.188-5.903,6.49-12.798,8.876-19.583c0.429-1.221,0.93-1.589,2.279-1.554c5.603,0.144,11.236,0.452,16.812,0.051
		c12.337-0.888,23.885-4.37,33.995-11.795c7.327-5.382,13.541-11.788,17.89-19.861c0.319-0.593,0.522-1.25,0.777-1.878
		c-18.788,18.858-41.588,25.892-67.614,24.561c0.977-4.714,1.516-5.422,5.736-5.983c2.499-0.333,5.074-0.13,7.615-0.124
		c0.761,0.001,1.523,0.136,2.282,0.229c0.747,0.092,1.49,0.206,2.236,0.311c-3.872-3.47-8.575-4.432-13.76-5.138
		c1.886-3.313,3.687-6.476,5.543-9.736c-0.241,0.064-0.431,0.062-0.546,0.154c-0.496,0.397-0.983,0.809-1.448,1.241
		c-7.543,7-12.781,15.628-17.55,24.62c-3.962,7.47-7.637,15.158-12.311,22.167c-6.653,9.977-15.653,17.559-26.78,22.38
		C572.109,203.563,570.126,204.279,568.167,205.052z M449.425,152.602c-26.388,1.356-49.337-5.87-67.905-25.15
		c0.14,0.639,0.325,1.172,0.577,1.673c0.43,0.854,0.854,1.716,1.363,2.522c10.376,16.42,25.293,25.951,44.34,29.223
		c7.854,1.351,15.745,1.4,23.649,0.665c1.121-0.104,1.602,0.198,1.945,1.204c0.738,2.164,1.528,4.312,2.365,6.439
		c2.665,6.777,5.689,13.308,10.702,18.802c8.267,9.058,18.007,15.297,30.395,16.793c2.444,0.296,4.913,0.384,7.37,0.568
		c-0.316-0.564-0.665-0.674-1.015-0.78c-0.422-0.128-0.854-0.233-1.269-0.383c-12.784-4.621-22.954-12.785-30.445-23.926
		c-4.666-6.938-8.292-14.588-12.226-22.002c-4.83-9.104-10.124-17.85-17.81-24.896c-0.501-0.46-1.068-0.85-1.604-1.271
		c0.776,1.837,1.757,3.394,2.67,4.99c0.89,1.558,1.71,3.157,2.616,4.84c-7.411,1.037-12.111,2.822-13.647,5.161
		c1.699-0.229,3.33-0.525,4.974-0.649c1.715-0.129,3.445-0.172,5.165-0.114C446.751,146.482,448.06,147.512,449.425,152.602z
		 M511.296,319.009c-0.048-0.308-0.092-0.616-0.143-0.925c-1.309-7.862-1.725-15.684,0.737-23.445
		c0.882-2.779,0.73-5.633-1.188-7.948c-3.472-4.188-7.019-8.3-9.451-13.394c-0.676,1.475-1.299,2.92-1.483,4.417
		c-0.576,4.725,1.031,9.017,2.878,13.246c0.428,0.979,0.855,2.013,0.987,3.059c0.446,3.534,0.624,7.108,1.159,10.626
		C505.604,309.99,507.521,314.912,511.296,319.009z M570.91,273.068c-2.025,5.047-5.247,8.899-8.529,12.72
		c-1.867,2.175-2.947,4.725-2.106,7.568c2.023,6.837,2.396,13.765,1.553,20.797c-0.198,1.649-0.468,3.289-0.778,5.45
		c4.467-5.641,6.341-11.65,6.972-18.179c0.322-3.337,0.724-6.695,1.485-9.951c0.689-2.944,2.118-5.713,2.854-8.65
		C573.174,279.573,573.05,276.301,570.91,273.068z M522.085,235.853c9.622,9.4,20.595,8.019,27.894-0.012
		c-4.852-0.093-8.968-1.902-12.789-4.593c-0.477-0.335-1.617-0.301-2.105,0.047C531.273,234.014,527.136,235.755,522.085,235.853z
		 M522.602,263.919c8.47,8.674,19.616,7.996,27.278-0.209c-4.938-0.001-9.012-1.928-12.822-4.627
		c-0.429-0.304-1.404-0.175-1.958,0.097c-2.39,1.17-4.641,2.653-7.092,3.655C526.35,263.511,524.442,263.573,522.602,263.919z
		 M551.288,203.977c-7.736-3.181-12.209-9.172-15.142-17.211c-2.839,8.267-7.511,14.026-15.142,17.251
		C531.146,202.113,541.174,202.038,551.288,203.977z M536.189,151.872c3.093-7.677,8.353-12.792,15.469-16.294
		c-2.502,0.053-4.992,0.06-7.185,0.872c-5.566,2.063-10.954,1.985-16.521,0.021c-2.233-0.789-4.733-0.822-7.111-1.199
		c-0.073,0.227-0.148,0.453-0.221,0.679C527.893,139.097,533.131,144.23,536.189,151.872z M566.073,270.029
		c0.188-0.139,0.401-0.262,0.573-0.428c0.41-0.398,0.858-0.774,1.193-1.23c3.485-4.778,6.038-9.968,7.124-15.84
		c0.486-2.627,0.167-5.01-1.061-6.819c-2.658,3.692-5.237,7.53-8.084,11.157C562.918,260.569,562.874,266.343,566.073,270.029z
		 M506.262,270.184c3.059-3.828,3.235-9.565,0.765-12.764c-2.965-3.839-5.761-7.808-8.6-11.683c-0.217,0.551-0.706,1.509-0.97,2.524
		c-0.812,3.117,0.199,6.044,1.193,8.919C500.297,261.952,502.533,266.402,506.262,270.184z M570.453,242.249
		c1.533-1.749,2.886-3.241,4.18-4.783c1.627-1.937,3.285-3.854,4.779-5.89c1.2-1.638,1.482-3.682,0.664-5.46
		c-1.084-2.354-2.631-4.497-3.978-6.729c-0.161,0.1-0.321,0.2-0.482,0.301c0.591,5.898-0.775,7.465-4.204,10.738
		c-1.15,1.098-2.493,2.082-3.326,3.389c-0.598,0.937-0.974,2.504-0.604,3.465C568.188,239.113,569.497,240.715,570.453,242.249z
		 M501.81,241.95c4.462-3.93,4.539-6.577,0.06-10.652c-0.376-0.343-0.717-0.727-1.108-1.051c-3.191-2.634-4.677-5.944-4.06-10.106
		c0.01-0.064-0.153-0.154-0.307-0.299c-0.601,0.641-1.295,1.213-1.781,1.927c-1.889,2.776-3.794,5.68-1.993,9.151
		c1.01,1.947,2.454,3.702,3.883,5.392C498.167,238.273,500.025,240.068,501.81,241.95z M682.523,153.987
		c4.971,0.705,10.05,1.186,15.021,2.196c4.953,1.009,9.799,2.55,14.523,3.813C703.596,148.942,689.228,149.017,682.523,153.987z
		 M359.771,160.575c9.989-4.021,19.945-5.904,30.344-6.277C382.802,147.644,368.782,150.461,359.771,160.575z M531.253,291.051
		c0.745,1.724,1.242,3.446,2.176,4.888c1.175,1.813,3.859,1.844,5.348,0.311c2.437-2.51,2.528-7.374,0.188-10.01
		c-1.705-1.92-4.029-2.027-5.543,0.047C532.455,287.611,532.016,289.319,531.253,291.051z M522.326,122.025
		c6.927,6.956,21.111,6.96,27.745-0.012C540.83,125.056,531.54,125.039,522.326,122.025z"/>
	<path fill-rule="evenodd" clip-rule="evenodd" d="M596.854,290.021c0.369,7.145,0.718,13.876,1.086,20.989
		c-5.943,2.116-11.779,4.192-17.616,6.271c-0.11-0.148-0.222-0.297-0.332-0.444c3.675-3.92,4.694-8.928,6.126-13.828
		C587.748,297.427,591.304,293.195,596.854,290.021z"/>
	<path fill-rule="evenodd" clip-rule="evenodd" d="M492.096,317.385c-5.512-2.053-11.03-4.09-16.523-6.191
		c-0.421-0.16-0.96-0.795-0.946-1.19c0.235-6.541,0.551-13.079,0.86-19.891c3.459,1.621,5.872,3.911,7.647,6.691
		c1.484,2.325,2.806,4.906,3.49,7.558c1.174,4.548,2.571,8.896,5.747,12.501C492.279,317.037,492.188,317.211,492.096,317.385z"/>
	<path fill-rule="evenodd" clip-rule="evenodd" d="M397.937,29.012c-0.167,0.184-0.335,0.366-0.498,0.553
		c-1.607,1.837-1.606,1.837-3.404,0.184c-0.274-0.252-0.557-0.494-0.836-0.741C394.778,29.009,396.357,29.01,397.937,29.012z"/>
	<path fill-rule="evenodd" clip-rule="evenodd" fill="#FFFFFF" d="M568.167,205.052c1.959-0.772,3.942-1.488,5.873-2.324
		c11.127-4.821,20.127-12.403,26.78-22.38c4.674-7.009,8.349-14.697,12.311-22.167c4.769-8.992,10.007-17.62,17.55-24.62
		c0.465-0.433,0.952-0.844,1.448-1.241c0.115-0.093,0.305-0.09,0.546-0.154c-1.856,3.26-3.657,6.423-5.543,9.736
		c5.185,0.706,9.888,1.668,13.76,5.138c-0.746-0.104-1.489-0.219-2.236-0.311c-0.759-0.093-1.521-0.228-2.282-0.229
		c-2.541-0.006-5.116-0.209-7.615,0.124c-4.221,0.562-4.76,1.27-5.736,5.983c26.026,1.331,48.826-5.703,67.614-24.561
		c-0.255,0.627-0.458,1.285-0.777,1.878c-4.349,8.073-10.563,14.479-17.89,19.861c-10.11,7.425-21.658,10.907-33.995,11.795
		c-5.575,0.401-11.209,0.093-16.812-0.051c-1.35-0.035-1.851,0.333-2.279,1.554c-2.386,6.785-4.688,13.68-8.876,19.583
		c-8.949,12.617-20.619,21.011-36.557,22.276c-1.746,0.139-3.492,0.277-5.237,0.415
		C568.197,205.255,568.183,205.154,568.167,205.052z"/>
	<path fill-rule="evenodd" clip-rule="evenodd" fill="#FFFFFF" d="M449.425,152.602c-1.366-5.09-2.674-6.119-7.789-6.29
		c-1.719-0.058-3.449-0.015-5.165,0.114c-1.644,0.124-3.275,0.42-4.974,0.649c1.536-2.339,6.236-4.124,13.647-5.161
		c-0.906-1.684-1.726-3.282-2.616-4.84c-0.913-1.596-1.894-3.153-2.67-4.99c0.536,0.421,1.103,0.811,1.604,1.271
		c7.686,7.046,12.979,15.792,17.81,24.896c3.933,7.414,7.56,15.063,12.226,22.002c7.492,11.141,17.661,19.305,30.445,23.926
		c0.415,0.149,0.847,0.255,1.269,0.383c0.35,0.106,0.698,0.216,1.015,0.78c-2.458-0.185-4.926-0.272-7.37-0.568
		c-12.388-1.496-22.128-7.735-30.395-16.793c-5.013-5.494-8.038-12.024-10.702-18.802c-0.837-2.128-1.627-4.275-2.365-6.439
		c-0.343-1.006-0.825-1.309-1.945-1.204c-7.904,0.735-15.795,0.686-23.649-0.665c-19.047-3.271-33.964-12.803-44.34-29.223
		c-0.509-0.807-0.933-1.669-1.363-2.522c-0.251-0.501-0.437-1.034-0.577-1.673C400.088,146.731,423.038,153.958,449.425,152.602z"/>
	<path fill-rule="evenodd" clip-rule="evenodd" fill="#FFFFFF" d="M511.296,319.009c-3.774-4.097-5.692-9.019-6.505-14.364
		c-0.535-3.518-0.712-7.092-1.159-10.626c-0.132-1.046-0.56-2.079-0.987-3.059c-1.847-4.229-3.454-8.521-2.878-13.246
		c0.184-1.497,0.807-2.942,1.483-4.417c2.432,5.094,5.979,9.205,9.451,13.394c1.918,2.315,2.07,5.169,1.188,7.948
		c-2.462,7.762-2.046,15.583-0.737,23.445C511.204,318.393,511.248,318.701,511.296,319.009z"/>
	<path fill-rule="evenodd" clip-rule="evenodd" fill="#FFFFFF" d="M570.91,273.068c2.14,3.232,2.264,6.505,1.45,9.755
		c-0.736,2.938-2.165,5.706-2.854,8.65c-0.762,3.256-1.163,6.614-1.485,9.951c-0.631,6.528-2.505,12.538-6.972,18.179
		c0.311-2.161,0.58-3.801,0.778-5.45c0.844-7.032,0.471-13.96-1.553-20.797c-0.841-2.844,0.239-5.394,2.106-7.568
		C565.663,281.968,568.885,278.115,570.91,273.068z"/>
	<path fill-rule="evenodd" clip-rule="evenodd" fill="#FFFFFF" d="M522.085,235.853c5.051-0.098,9.188-1.839,12.999-4.558
		c0.488-0.348,1.629-0.382,2.105-0.047c3.821,2.69,7.938,4.5,12.789,4.593C542.68,243.871,531.707,245.253,522.085,235.853z"/>
	<path fill-rule="evenodd" clip-rule="evenodd" fill="#FFFFFF" d="M522.602,263.919c1.84-0.346,3.748-0.408,5.406-1.084
		c2.451-1.002,4.702-2.485,7.092-3.655c0.554-0.271,1.529-0.4,1.958-0.097c3.811,2.699,7.884,4.626,12.822,4.627
		C542.218,271.915,531.072,272.593,522.602,263.919z"/>
	<path fill-rule="evenodd" clip-rule="evenodd" fill="#FFFFFF" d="M551.288,203.977c-10.114-1.938-20.142-1.863-30.283,0.04
		c7.631-3.225,12.303-8.984,15.142-17.251C539.079,194.805,543.552,200.796,551.288,203.977z"/>
	<path fill-rule="evenodd" clip-rule="evenodd" fill="#FFFFFF" d="M536.189,151.872c-3.059-7.642-8.297-12.775-15.569-15.922
		c0.073-0.227,0.148-0.453,0.221-0.679c2.378,0.377,4.878,0.411,7.111,1.199c5.566,1.965,10.954,2.043,16.521-0.021
		c2.192-0.812,4.683-0.819,7.185-0.872C544.542,139.08,539.282,144.195,536.189,151.872z"/>
	<path fill-rule="evenodd" clip-rule="evenodd" fill="#FFFFFF" d="M566.073,270.029c-3.199-3.687-3.155-9.46-0.254-13.16
		c2.847-3.627,5.426-7.465,8.084-11.157c1.228,1.81,1.547,4.192,1.061,6.819c-1.086,5.872-3.639,11.062-7.124,15.84
		c-0.335,0.456-0.783,0.832-1.193,1.23C566.475,269.768,566.262,269.891,566.073,270.029z"/>
	<path fill-rule="evenodd" clip-rule="evenodd" fill="#FFFFFF" d="M506.262,270.184c-3.729-3.781-5.965-8.231-7.613-13.003
		c-0.994-2.875-2.005-5.802-1.193-8.919c0.264-1.016,0.753-1.974,0.97-2.524c2.839,3.875,5.635,7.844,8.6,11.683
		C509.497,260.618,509.321,266.355,506.262,270.184z"/>
	<path fill-rule="evenodd" clip-rule="evenodd" fill="#FFFFFF" d="M570.453,242.249c-0.956-1.534-2.266-3.136-2.971-4.97
		c-0.37-0.961,0.006-2.528,0.604-3.465c0.833-1.307,2.176-2.291,3.326-3.389c3.429-3.273,4.795-4.84,4.204-10.738
		c0.161-0.101,0.321-0.201,0.482-0.301c1.347,2.232,2.894,4.375,3.978,6.729c0.818,1.778,0.536,3.822-0.664,5.46
		c-1.494,2.036-3.152,3.953-4.779,5.89C573.339,239.008,571.986,240.5,570.453,242.249z"/>
	<path fill-rule="evenodd" clip-rule="evenodd" fill="#FFFFFF" d="M501.81,241.95c-1.785-1.882-3.644-3.677-5.304-5.639
		c-1.429-1.689-2.874-3.444-3.883-5.392c-1.802-3.472,0.104-6.375,1.993-9.151c0.485-0.714,1.18-1.286,1.781-1.927
		c0.153,0.145,0.317,0.234,0.307,0.299c-0.618,4.162,0.868,7.473,4.06,10.106c0.391,0.324,0.731,0.708,1.108,1.051
		C506.349,235.373,506.272,238.021,501.81,241.95z"/>
	<path fill-rule="evenodd" clip-rule="evenodd" fill="#FFFFFF" d="M682.523,153.987c6.704-4.971,21.072-5.045,29.545,6.009
		c-4.725-1.263-9.57-2.804-14.523-3.813C692.573,155.173,687.494,154.692,682.523,153.987z"/>
	<path fill-rule="evenodd" clip-rule="evenodd" fill="#FFFFFF" d="M359.771,160.575c9.011-10.114,23.031-12.932,30.344-6.277
		C379.716,154.671,369.76,156.554,359.771,160.575z"/>
	<path fill-rule="evenodd" clip-rule="evenodd" fill="#FFFFFF" d="M531.253,291.051c0.763-1.731,1.202-3.439,2.168-4.765
		c1.514-2.074,3.838-1.967,5.543-0.047c2.341,2.636,2.249,7.5-0.188,10.01c-1.488,1.533-4.173,1.502-5.348-0.311
		C532.495,294.497,531.998,292.774,531.253,291.051z"/>
	<path fill-rule="evenodd" clip-rule="evenodd" fill="#FFFFFF" d="M522.326,122.025c9.214,3.014,18.504,3.031,27.745-0.012
		C543.437,128.985,529.253,128.981,522.326,122.025z"/>
</g>
<text transform="matrix(1.0279 0 0 1 147.9746 267.0732)" font-family="'Stencil'" font-size="86.04">BODY</text>
<text transform="matrix(1 0 0 1 669.9043 270.0293)" font-family="'Stencil'" font-size="86.0411">BUILDING</text>
</svg>
