<?xml version="1.0" encoding="utf-8"?>
<!-- Generator: Adobe Illustrator 16.0.0, SVG Export Plug-In . SVG Version: 6.00 Build 0)  -->
<!DOCTYPE svg PUBLIC "-//W3C//DTD SVG 1.1//EN" "http://www.w3.org/Graphics/SVG/1.1/DTD/svg11.dtd">
<svg version="1.1" id="Layer_1" xmlns="http://www.w3.org/2000/svg" xmlns:xlink="http://www.w3.org/1999/xlink" x="0px" y="0px"
	 width="1200px" height="215.692px" viewBox="0 0 1200 215.692" enable-background="new 0 0 1200 215.692" xml:space="preserve">
<g>
	<path fill-rule="evenodd" clip-rule="evenodd" d="M86.668,87.805c0.535,0.231,2.133,0.529,3.198,1.445
		c6.814,5.863,7.909,4.815,14.668-1.955c6.106-6.116,12.739-11.093,21.101-13.681c4.789-1.482,8.957-0.565,12.586,2.568
		c18.964,16.376,32.957,36.02,39.164,60.627c1.207,4.789,0.678,9.828-3.69,12.636c-7.216,4.639-14.718,8.972-22.517,12.515
		c-5.77,2.621-15.49-1.024-20.637-7.514c-2.023-2.553-4.277-4.976-6.704-7.148c-7.128-6.382-10.926-14.934-15.196-23.138
		c-2.857-5.491-5.224-11.247-7.611-16.967c-0.729-1.747-0.798-3.769-1.246-6.063c-5.274,2.336-10.787,4.162-15.491,7.228
		c-1.46,0.952-1.333,5.392-0.795,8c0.375,1.817,2.659,3.264,4.149,4.821c4.088,4.275,8.207,8.521,13.094,13.586
		c-4.59,2.938-8.117,5.683-12.043,7.613c-9.527,4.685-9.602,4.532-4.277,12.853c-4.174,1.355-4.174,1.355-13.416-5.362
		c5.715-5.097,11.311-10.087,17.137-15.282c-4.137-2.21-8.198-4.38-12.763-6.82c-0.68,0.512-1.934,1.315-3.023,2.299
		c-5.864,5.296-12.696,8.749-20.152,11.264c-4.199,1.416-8.281,3.33-12.174,5.461c-3.958,2.167-5.075,5.745-3.212,10.329
		c-4.002,0.902-5.959,0.077-7.37-4.143c-1.718-5.138-1.156-7.473,4.559-8.273c2.05-0.287,3.751-2.614,5.759-3.751
		c2.973-1.685,6.08-3.131,9.122-4.693c1.296-0.666,3.104-1.037,3.772-2.108c3.359-5.376,9.678-8.859,10.319-15.987
		c0.056-0.624,0.38-1.375,0.833-1.788c5.87-5.355,6.482-12.35,6.396-19.66c-0.053-4.557,2.517-7.803,6.094-10.282
		c1.996-1.384,3.556-2.55,2.678-5.577c-0.504-1.738,0.182-3.98,0.789-5.847c0.982-3.022,3.183-4.948,6.466-3.863
		c2.918,0.964,5.648,2.701,4.324,6.597C89.449,81.008,88.081,84.183,86.668,87.805z M139.004,97.061
		c0.746,9.739,12.287,26.936,19.551,29.512C159.848,116.433,148.637,99.234,139.004,97.061z"/>
	<path fill-rule="evenodd" clip-rule="evenodd" d="M485.48,54.706c4.921,2.116,9.305,4.001,14.08,6.054
		c-1.292-11.243-2.515-21.892-3.738-32.54c0.383-0.357,0.766-0.715,1.149-1.072c1.007,0.975,2.789,1.864,2.906,2.936
		c2.164,19.838,4.078,39.701,6.198,59.543c0.285,2.671,1.879,5.228,2.02,7.882c0.211,4.008,0.113,8.145-0.687,12.056
		c-0.604,2.954-2.289,5.779-3.899,8.412c-2.088,3.414-5.11,2.826-7.371,1.527c-0.987,7.457-2.145,15.127-2.965,22.834
		c-0.438,4.111-0.078,8.305-0.457,12.428c-0.892,9.719-2.269,19.4-2.938,29.131c-0.394,5.723,0.072,11.518,0.397,17.266
		c0.125,2.211,1.88,4.725-1.938,5.396c-3.681,0.646-7.534-1.803-8.051-4.693c-0.975-5.455-0.381-10.193,2.052-15.553
		c1.928-4.246,0.5-10.135,0.158-15.268c-0.748-11.23-1.715-22.447-2.684-33.662c-0.168-1.949-0.785-3.861-1.442-6.957
		c-0.771,1.82-1.318,2.586-1.404,3.4c-0.936,8.867-1.923,17.732-2.646,26.619c-0.593,7.291-0.926,14.607-1.192,21.918
		c-0.063,1.732,0.052,3.926,1.029,5.158c3.952,4.984,2.497,10.539,1.19,15.541c-0.452,1.727-5.206,3.316-7.935,3.223
		c-3.703-0.129-1.539-3.326-1.504-5.447c0.106-6.58,0.758-13.291-0.268-19.715c-1.549-9.713-3.071-19.205-2.356-29.195
		c0.511-7.152-1.63-14.471-2.314-21.74c-0.338-3.596-0.059-7.25-0.059-10.98c-5.649,2.221-6.33,1.473-9.109-3.92
		c-2.37-4.597-6.608-9.089-4.658-14.211c4.975-13.064,2.19-26.894,5.051-40.156c2.095-9.715,2.447-19.799,3.774-29.69
		c0.199-1.483,1.481-2.823,2.263-4.229c0.647,0.258,1.294,0.516,1.942,0.773c-1.207,10.642-2.414,21.284-3.726,32.845
		c4.261-1.791,8.363-3.515,12.676-5.328c-1.582-6.348-2.413-12.766,3.623-17.125c2.854-2.062,6.668-2.314,9.769,0.24
		C487.87,42.897,487.51,48.661,485.48,54.706z M461.246,82.986c-4.619,6.184-4.451,17.235-0.025,26.235
		C462.927,100.571,465.839,92.14,461.246,82.986z M495.032,109.134c2.565-8.532,5.249-17.106-0.171-26.8
		C490.106,92.192,492.895,100.644,495.032,109.134z"/>
	<path fill-rule="evenodd" clip-rule="evenodd" d="M965.145,205.661c-2.124,0.143-3.425,0.293-4.727,0.309
		c-7.628,0.094-9.516-3.025-6.681-10.24c1.172-2.982,2.028-6.292,2.087-9.471c0.18-9.641-0.678-19.357,4.658-28.17
		c0.647-1.071,0.796-3.436,0.096-4.165c-3.681-3.842-1.356-8.237-1.334-12.313c0.008-1.416,2.15-2.762,3.166-4.243
		c2.098-3.06,5.496-6.026,5.879-9.319c1.397-12.012,2.17-24.136,2.396-36.232c0.147-7.907-1.636-15.852-1.474-23.758
		c0.133-6.528,1.76-13.04,2.902-19.528c0.68-3.86,1.703-7.659,2.359-10.548c-2.867,0-5.049,0-7.23,0
		c0.643-3.24,1.285-6.479,1.928-9.719c1.547,0.946,3.093,1.893,5.59,3.42c2.191-0.947,5.65-4.596,9.166-0.892
		c1.803-1.155,3.322-2.128,4.842-3.102c0.586,1.428,1.705,2.884,1.631,4.278c-0.105,2-1.078,3.956-1.682,5.93
		c-1.497-0.576-2.994-1.153-4.951-1.906c-8.59,7.051-10.342,47.423-0.857,54.536c-0.631-1.627-1.578-3.206-1.834-4.89
		c-0.799-5.266,0.986-10.749-1.813-15.987c-0.521-0.976,1.959-4.813,3.712-5.415c2.015-0.69,4.901,0.416,7.142,1.369
		c1.817,0.773,3.553,2.236,4.762,3.822c1.627,2.134,3.82,4.69,3.799,7.046c-0.047,4.817-1.703,9.598-2.09,14.441
		c-0.167,2.076,1.172,4.275,1.848,6.411c0.04,0.125,0.25,0.229,0.402,0.281c10.619,3.628,12.469,11.339,11.434,21.615
		c-0.805,7.979,0.514,16.179,0.978,24.275c0.051,0.894,0.427,2.097,1.078,2.575c7.078,5.201,5.925,12.969,6.028,20.108
		c0.068,4.774-0.469,9.786-1.932,14.304c-2.483,7.666,1.391,12.105,6.532,16.475c1.33,1.131,2.078,2.947,3.094,4.447
		c-1.669,0.416-3.348,1.215-5.006,1.174c-4.099-0.1-8.187-0.584-11.771-0.873c-0.818-14.428-1.6-28.18-2.381-41.936
		c-5.602-0.497-11.229-0.967-16.846-1.527c-0.969-0.096-1.988-0.427-2.831-0.915c-3.97-2.302-6.763-2.879-11.718,0.119
		c-4.724,2.858-5.131,6.073-6.252,10.021c-1.18,4.146-2.012,8.528-3.996,12.277c-3.809,7.189-4.125,14.188-0.933,21.543
		C964.809,202.425,964.805,203.778,965.145,205.661z M1001.564,117.944c-13.043,13.894-7.563,20.198,1.43,21.938
		C1002.539,132.897,1002.071,125.719,1001.564,117.944z"/>
	<path fill-rule="evenodd" clip-rule="evenodd" d="M651.152,27.593c1.787,0.133,3.068,0.228,3.957,0.293
		c0,8.303,0.068,16.316-0.063,24.327c-0.023,1.417-0.922,2.808-1.346,4.231c-1.236,4.158-2.438,8.326-3.652,12.491
		c0.543,0.327,1.088,0.653,1.633,0.98c1.994-1.519,4.035-2.978,5.961-4.577c1.146-0.951,2.033-2.215,3.172-3.178
		c7.301-6.174,7.314-6.158,3.844-14.021c1.563-2.357,3.018-4.555,4.445-6.71c3.529-1.299,7.41-2.87,11.395-4.108
		c1.23-0.381,3.057-0.336,4.072,0.33c6.693,4.398,7.998,11.577,3.121,18.043c-1.785,2.365-2.732,6.79-8.094,4.545
		c3.656,12.649-3.865,22.473-7.498,33.229c-1.33,3.934-3.158,7.699-4.68,11.572c-0.203,0.516-0.137,1.334,0.145,1.813
		c2.689,4.576,0.854,8.896-0.248,13.469c-1.193,4.953-1.855,10.131-1.945,15.225c-0.076,4.195,2.045,5.082,5.316,2.402
		c4.186-3.426,6.492-2.326,9.615,1.773c2.98,3.914,5.105,7.752,5.068,12.594c-0.016,1.98-0.701,3.955-1.006,5.543
		c-6.408-4.264-12.309-8.189-19.609-13.047c0.537,3.424,0.275,6.004,1.34,7.795c4.1,6.904,3.172,13.969,1.84,21.307
		c-0.971,5.35-1.037,10.857-1.762,16.262c-0.498,3.709-1.014,7.518-2.307,10.99c-1.117,3.006-3.805,5.875-7.305,4.234
		c-3.945-1.85-2.332-5.246-0.58-8.088c4.977-8.07,4.531-16.67,2.695-25.477c-0.775-3.713-0.887-7.576-1.82-11.236
		c-1.131-4.424-2.23-9.061-4.551-12.871c-0.904-1.484-5.094-0.969-8.096-1.41c-0.156,2.027-0.408,3.016-0.275,3.951
		c2.521,18.004-2.914,34.939-6.932,52.066c-0.574,2.449-1.217,4.697-4.162,3.305c2.516-12.352,5.434-24.473,7.297-36.752
		c0.93-6.129,0.139-12.568-0.371-18.826c-0.096-1.178-2.414-2.844-3.922-3.125c-7.699-1.441-10.857-6.529-7.463-13.471
		c4.979-10.18,6.809-20.979,7.477-32.117c0.117-1.967,0.578-3.99,1.285-5.831c5.354-13.913,6.48-28.61,8.201-43.204
		c0.135-1.13,0.24-2.654,0.969-3.26c5.412-4.491,4.473-10.576,4.463-16.469C650.775,31.107,650.992,29.63,651.152,27.593z"/>
	<path fill-rule="evenodd" clip-rule="evenodd" d="M1102.729,194.428c7.423-7.447,7.803-16.287,8.046-25.89
		c0.326-12.827,1.428-25.698,6.918-37.911c4.348-9.67-0.977-18.688-4.757-27.473c-1.042-2.423-2.474-4.69-3.866-6.943
		c-0.767-1.238-1.6-2.914-2.783-3.344c-12.582-4.567-16.862-14.6-18.054-26.775c-0.048-0.488-0.245-0.96-0.296-1.152
		c-1.731-0.675-3.266-1.273-4.799-1.871c1.094-1.201,1.975-2.809,3.327-3.519c2.483-1.306,5.21-2.188,7.897-3.06
		c8.109-2.63,16.719-3.989,23.49-9.908c1.123-0.982,3.031-1.191,4.627-1.482c3.211-0.587,6.455-0.984,10.102-1.521
		c-0.621-1.956-0.771-2.75-1.113-3.449c-1.073-2.189-3.129-4.492,0.736-6.014c2.971-1.17,6.078-2.643,8.074,1.516
		c1.512,3.146,3.096,6.263,4.476,9.467c1.247,2.897,0.527,5.336-2.532,6.532c-2.664,1.042-4.996,1.197-6.408-2.325
		c-1.117-2.785-6.783-2.827-10.464-0.248c-3.013,2.109-1.046,4.059,0.177,6.32c2.256,4.174,3.389,9.102,6.19,12.806
		c6.812,9.003,6.208,19.965,8.754,30.043c1.485,5.877,1.235,12.191,1.778,18.308c0.086,0.979,0.107,1.986,0.375,2.918
		c1.984,6.948,4.582,13.78,5.848,20.852c0.842,4.701-0.271,9.736-0.347,14.623c-0.024,1.613-0.108,3.752,0.812,4.762
		c4.169,4.584,3.244,10.23,3.92,15.588c0.538,4.254,1.883,8.441,2.071,12.695c0.163,3.684,0.009,7.834-1.601,10.953
		c-0.801,1.555-5.18,1.262-8.232,1.861c1.08-5.457,2.086-9.84,2.756-14.271c0.264-1.74,0.214-3.771-0.437-5.367
		c-4.544-11.15-9.331-22.203-13.913-33.34c-0.72-1.749-0.8-3.762-1.141-5.479c-3.528,4.471-7.025,8.843-10.442,13.276
		c-0.778,1.009-2.062,2.489-1.788,3.313c2.145,6.449-2.313,11.508-3.322,17.258c-0.199,1.139-1.064,2.623-0.626,3.342
		c2.929,4.805-0.407,7.48-2.481,11.393C1110.768,196.448,1107.051,194.918,1102.729,194.428z M1123.627,72.684
		c0.439-0.192,0.88-0.385,1.32-0.577c-2.188-6.836-4.376-13.673-6.592-20.595c-7.023,2.719-13.372,4.781-19.364,7.604
		c-6.487,3.057-7.089,6.357-3.111,12.02c0.565,0.805,1.229,1.664,1.423,2.586c1.31,6.247,7.162,6.365,11.702,8.977
		c-2.251-6.105-2.429-11.917,3.794-14.66C1116.843,66.254,1121.291,67.979,1123.627,72.684z"/>
	<path fill-rule="evenodd" clip-rule="evenodd" d="M366.456,84.669c-0.459,2.555-0.641,5.472-1.575,8.123
		c-0.669,1.896-2.052,4.455-3.641,4.917c-3.056,0.888-4.856-1.448-5.345-4.462c-0.424-2.607-0.693-5.242-1.09-8.313
		c-1.846-0.096-3.771-0.195-4.42-0.229c-4.998,6.16-9.473,11.557-13.784,17.084c-0.905,1.16-1.179,2.805-1.795,4.204
		c-0.427,0.972-0.716,2.477-1.452,2.768c-7.432,2.936-6.754,10.415-9.117,16.124c-0.969,2.342-1.126,5.021-1.699,7.773
		c4.104-1.246,9.324-3.781,11.701,0.684c1.695,3.182,0.248,8.182-0.24,12.318c-0.246,2.078-1.409,4.07-2.283,6.045
		c-1.743,3.936-2.987,7.785,1.559,11.176c-0.229,0.338-0.457,0.676-0.686,1.014c-1.756-0.184-4.369,0.271-5.08-0.686
		c-1.326-1.787-2.189-4.426-2.085-6.656c0.186-3.986,1.231-7.932,1.802-11.227c-9.459,0-17.989,0-27.406,0
		c0.574,3.254,1.635,7.215,1.84,11.221c0.115,2.229-0.729,4.875-2.049,6.661c-0.713,0.965-3.338,0.517-5.48,0.171
		c4.144-3.854,2.926-7.604,1.293-11.621c-1.558-3.832-3.063-7.786-3.792-11.83c-1.281-7.102,2.58-10.268,9.622-8.358
		c1.082,0.294,2.117,0.754,3.547,1.272c-1.288-4.711-2.543-9.081-3.669-13.483c-1.077-4.214-1.952-8.503-6.876-10.079
		c-0.297-0.096-0.699-0.355-0.763-0.611c-2.171-8.766-11.12-13.018-14.11-21.223c-0.281-0.77-0.453-1.578-0.705-2.473
		c-2.506,0-4.938,0-7.572,0c-0.327,2.713-0.602,5.179-0.929,7.638c-0.417,3.143-1.775,5.46-5.368,5.313
		c-3.5-0.143-3.387-2.9-3.846-5.396c-0.49-2.658-2.254-5.359-1.918-7.833c0.646-4.765,1.834-9.64,3.884-13.954
		c1.08-2.273,6.021-0.279,6.854,2.938c0.742,2.864,0.916,5.877,1.3,8.543c27.925,0,55.668,0,83.72,0
		c0.375-2.478,0.32-5.606,1.439-8.237c0.709-1.668,3.078-3.367,4.869-3.566c1.1-0.121,3.139,2.367,3.648,4.023
		C365.723,77.579,365.891,80.959,366.456,84.669z M318.915,109.675c8.128-7.254,15.229-13.51,22.189-19.918
		c0.79-0.727,1.445-2.919,1.025-3.368c-0.874-0.935-2.508-1.595-3.834-1.603c-16.473-0.107-32.946-0.125-49.42-0.003
		c-1.445,0.011-2.882,1.16-4.323,1.78c0.753,1.418,1.22,3.125,2.31,4.2c4.219,4.165,8.511,8.278,13.032,12.109
		c2.522,2.137,5.55,3.678,7.438,4.899c0.789-4.188,1.145-8.248,2.545-11.908c0.333-0.869,4.618-1.262,6.311-0.383
		C321.524,98.252,319.077,103.453,318.915,109.675z"/>
	<g>
		<path fill-rule="evenodd" clip-rule="evenodd" d="M863.034,158.951c1.021-10.382,2.436-20.747,2.912-31.153
			c0.27-5.881-1.004-11.833-1.61-18.042c-6.669,3.961-7.676,3.519-9.771-3.129c-0.415-1.318-1.668-2.378-2.553-3.543
			c-3.591-4.723-7.141-9.479-10.813-14.137c-1.079-1.368-2.514-2.456-5.104-3.303c0.247,5.24,0.353,10.491,0.783,15.716
			c0.391,4.727,1.264,9.414,1.684,14.14c0.308,3.447,0.508,6.953,0.219,10.388c-0.201,2.399-1.695,4.684-1.938,7.088
			c-0.743,7.332-1.188,14.694-1.694,22.048c-0.428,6.218-0.758,12.443-1.184,18.661c-0.09,1.312-0.016,2.89-0.707,3.847
			c-1.035,1.433-2.681,2.424-4.066,3.603c-0.959-1.729-2.582-3.406-2.724-5.199c-0.222-2.814,0.555-5.708,0.909-8.567
			c-0.601-0.115-1.201-0.229-1.801-0.344c-0.254,1.493-0.611,2.977-0.732,4.481c-0.133,1.637,0.385,3.465-0.189,4.883
			c-0.457,1.129-2.037,2.088-3.309,2.447c-0.438,0.123-1.795-1.701-2.121-2.813c-0.506-1.732-1.004-3.74-0.602-5.414
			c1.574-6.569-0.952-12.367-2.605-18.454c-1.462-5.389-1.957-11.042-2.855-16.582c-1.283-7.917-2.691-15.819-3.725-23.77
			c-0.287-2.209,0.611-4.561,0.887-6.857c0.76-6.332,1.476-12.668,2.209-19.003c-0.508-0.153-1.015-0.307-1.522-0.46
			c-1.591,3.596-2.925,7.335-4.839,10.75c-2.108,3.761-4.792,7.196-7.132,10.833c-0.778,1.21-1.616,2.552-1.83,3.926
			c-0.97,6.229-2.509,7.045-8.847,4.113c-2.444,16.319-1.369,32.117,5.262,47.327c-2.13-5.762-5.354-11.38-6.129-17.319
			c-1.129-8.661-0.994-17.587-0.378-26.328c0.262-3.71,2.978-7.309,4.83-10.826c1.378-2.616,3.7-4.829,4.664-7.553
			c3.169-8.961,6.189-17.997,8.702-27.158c1.334-4.866,4.676-7.083,8.701-8.771c2.743-1.15,3.136-2.634,2.48-5.421
			c-1.215-5.161-4.231-10.356-0.714-15.766c7.748-2.081,14.174,1.849,11.804,13.111c-0.573,2.726-0.832,5.156,2.461,6.536
			c8.615,3.609,12.517,10.384,15.678,19.166c2.852,7.919,9.036,14.833,14.549,21.533c3.879,4.714,5.919,9.583,6.258,15.527
			C867.3,132.605,868.401,146.055,863.034,158.951z M826.79,165.796c3.803-7.266,1.836-30.738-2.318-39.532
			C820.402,139.066,820.974,151.895,826.79,165.796z"/>
		<path fill-rule="evenodd" clip-rule="evenodd" d="M805.795,186.635c9.139,2.698,18.441,4.768,27.838,2.022
			c4.996-1.459,9.613-4.208,14.402-6.376c-3.603,5.215-9.268,6.726-14.924,7.625C823.775,191.389,814.398,191.878,805.795,186.635z"
			/>
	</g>
	<path fill-rule="evenodd" clip-rule="evenodd" fill="#FFFFFF" d="M818.627,136.597c-5.816-13.901-6.388-26.73-2.318-39.532
		C820.463,105.858,822.43,129.331,818.627,136.597z"/>
</g>
</svg>
