<?xml version="1.0" encoding="utf-8"?>
<!-- Generator: Adobe Illustrator 16.0.0, SVG Export Plug-In . SVG Version: 6.00 Build 0)  -->
<!DOCTYPE svg PUBLIC "-//W3C//DTD SVG 1.1//EN" "http://www.w3.org/Graphics/SVG/1.1/DTD/svg11.dtd">
<svg version="1.1" id="Layer_1" xmlns="http://www.w3.org/2000/svg" xmlns:xlink="http://www.w3.org/1999/xlink" x="0px" y="0px"
	 width="1213.439px" height="260.986px" viewBox="0 0 1213.439 260.986" enable-background="new 0 0 1213.439 260.986"
	 xml:space="preserve">
<g>
	<path fill-rule="evenodd" clip-rule="evenodd" stroke="#000000" stroke-miterlimit="10" d="M539.606,121.549
		c-0.043-1.099-0.214-2.208-0.109-3.291c0.755-7.899,2.98-15.453,5.465-22.945c0.338-1.017,0.521-2.083,0.776-3.126
		c-0.109-0.041-0.219-0.081-0.329-0.12c-0.765,1.331-1.508,2.676-2.303,3.99c-1.063,1.759-2.195,3.476-3.231,5.25
		c-0.295,0.507-0.538,1.16-0.5,1.725c0.206,3.057,0.268,6.094-0.344,9.12c-0.709,3.501-2.235,6.682-3.676,9.912
		c-1.129,2.534-2.079,5.149-3.046,7.753c-0.225,0.604-0.213,1.303-0.273,1.962c-0.018,0.177,0.036,0.42,0.153,0.54
		c1.871,1.901,2.435,4.357,2.913,6.844c0.269,1.395,0.495,2.796,0.739,4.19c-1.285,0.282-2.713-0.54-3.188-1.811
		c-0.538-1.438-1.089-2.858-2.299-3.894c-0.098-0.083-0.208-0.15-0.377-0.271c-0.78,2.815-0.836,5.511,0.58,8.102
		c0.461,0.844,0.966,1.662,1.434,2.502c0.159,0.285,0.314,0.59,0.389,0.905c0.255,1.098-0.443,1.794-1.44,1.298
		c-1.141-0.569-2.313-1.244-3.189-2.148c-3.785-3.886-5.898-8.55-5.838-14.029c0.021-1.974,0.417-3.94,0.631-5.911
		c0.061-0.56,0.103-1.123,0.111-1.687c0.078-4.812,0.102-9.626,0.242-14.437c0.045-1.581,0.35-3.16,0.62-4.726
		c0.071-0.417,0.392-0.84,0.699-1.161c1.169-1.224,2.4-2.388,3.567-3.612c0.468-0.492,0.829-1.085,1.239-1.634
		c0-0.001-0.021,0.036-0.021,0.036c0.445-0.328,1.039-0.563,1.305-1c0.659-1.086,0.497-1.713-0.435-2.641
		c-1.033-1.029-2.053-2.071-3.109-3.074c-0.732-0.698-0.953-1.41-0.76-2.474c1.457-8.02,4.331-15.431,9.305-21.938
		c3.712-4.854,8.245-8.74,14.004-10.969c2.431-0.94,5.028-1.443,7.461-2.375c2.437-0.933,4.808-2.064,7.119-3.276
		c1.919-1.006,3.092-2.775,3.932-4.734c0.133-0.31,0.066-0.772-0.056-1.111c-0.604-1.677-1.232-3.348-1.901-5
		c-0.421-1.041-0.951-2.037-1.386-3.073c-0.188-0.448-0.266-0.944-0.391-1.419c-0.2-0.76-0.468-1.51-0.583-2.282
		c-0.291-1.965-0.596-3.935-0.725-5.914c-0.06-0.927,0.259-1.881,0.432-2.818c0.078-0.418,0.12-0.895,0.349-1.227
		c0.746-1.085,1.563-2.123,2.371-3.162c0.179-0.23,0.408-0.46,0.666-0.585c2.214-1.081,4.318-2.337,6.887-2.63
		c3.67-0.42,7.286-0.342,10.863,0.493c1.061,0.247,2.022,0.913,3.203,1.467c-1.009,1.021-1.872,1.88-2.719,2.754
		c-1.137,1.172-1.952,2.247-1.092,4.123c0.247,0.538,0.175,1.268,0.108,1.896c-0.092,0.884-0.191,1.728,0.369,2.455
		c0.099-0.013,0.197-0.026,0.296-0.04c-0.02-0.226-0.057-0.452-0.053-0.678c0.008-0.552-0.104-1.159,0.085-1.644
		c0.344-0.879,0.176-1.599-0.271-2.357c-0.652-1.108-0.579-1.665,0.3-2.57c0.996-1.022,2.041-1.998,3.004-3.049
		c0.508-0.558,0.979-0.55,1.434-0.076c0.452,0.47,0.854,1.008,1.177,1.573c0.093,0.166-0.089,0.602-0.272,0.789
		c-1.189,1.208-1.521,2.514-0.929,3.873c0.703,1.609,1.837,2.302,3.602,2.196c0.044,0.049,0.128,0.104,0.121,0.146
		c-0.277,1.708-0.536,3.419-0.86,5.118c-0.179,0.934-0.475,1.845-0.71,2.768c-0.063,0.251-0.065,0.523-0.158,0.761
		c-0.896,2.309-1.805,4.611-2.709,6.917c-0.049,0.123-0.063,0.28-0.148,0.366c-1.237,1.244-0.428,2.34,0.229,3.459
		c1.323,2.252,3.42,3.533,5.688,4.639c3.416,1.667,7.072,2.604,10.674,3.733c5.333,1.671,9.655,4.927,13.349,9.047
		c6.657,7.433,10.149,16.297,11.584,26.045c0.415,2.815,0.519,5.675,0.815,8.51c0.071,0.678,0.301,1.35,0.528,2
		c1.12,3.195,1.543,6.512,1.63,9.867c0.12,4.646,0.091,9.299,0.226,13.944c0.048,1.707,0.352,3.41,0.596,5.105
		c0.428,2.956-0.242,5.743-1.327,8.438c-1.308,3.247-3.145,6.146-6.105,8.17c-0.49,0.333-1.026,0.649-1.586,0.806
		c-0.351,0.098-0.922,0.006-1.15-0.233c-0.227-0.239-0.313-0.839-0.174-1.155c0.451-1.026,0.999-2.016,1.572-2.981
		c1.6-2.696,1.56-5.534,0.797-8.535c-1.378,1.032-2.045,2.437-2.581,3.938c-0.541,1.518-1.831,2.359-3.376,2.153
		c0.779-3.268,0.614-6.872,2.706-9.629c1.502-1.978,1.212-3.735,0.471-5.604c-1.174-2.954-2.476-5.86-3.842-8.729
		c-2.509-5.266-3.39-10.778-2.799-16.557c0.039-0.372,0.023-0.828-0.156-1.13c-1.88-3.161-3.799-6.297-5.71-9.439
		c-0.059-0.1-0.159-0.175-0.475-0.181c0.229,1.001,0.406,2.019,0.694,3.003c1.177,4.005,2.482,7.977,3.561,12.008
		c1.419,5.303,2.033,10.727,2.227,16.218c0.27,7.603-0.56,15.11-2.003,22.531c-1.178,6.056-2.719,12.045-4.238,18.029
		c-1.172,4.614-3.074,8.958-5.455,13.088c-2.991,5.186-4.154,10.735-3.635,16.73c0.326,3.762,0.531,7.593,0.186,11.337
		c-0.357,3.865-1.162,7.75-2.278,11.473c-2.035,6.785-4.458,13.453-6.674,20.184c-0.191,0.581-0.182,1.308-0.028,1.905
		c0.257,0.986,0.683,1.935,1.083,2.879c0.27,0.637,0.264,1.051-0.431,1.455c-0.685,0.398-1.38,0.924-1.37,2.125
		c0.384-0.358,0.818-0.57,0.845-0.826c0.056-0.544,0.195-0.829,0.768-0.721c0.262,0.05,0.727,0.145,0.734,0.248
		c0.034,0.462-0.006,0.949-0.129,1.399c-0.089,0.328-0.351,0.61-0.535,0.913c0.088,0.069,0.176,0.138,0.263,0.207
		c0.271-0.244,0.544-0.489,0.814-0.733c1.057,1.398,1.1,1.721,0.164,2.863c0.551-0.041,0.908-0.069,1.321-0.099
		c1.168,1.798,0.95,2.794-1.104,3.718c-1.105,0.496-2.328,0.749-3.518,1.025c-0.272,0.064-0.697-0.159-0.933-0.379
		c-1.019-0.95-2.018-1.925-2.974-2.935c-0.611-0.646-0.983-0.411-1.262,0.005c1.264,1.14,2.462,2.221,3.66,3.3
		c-0.038,0.137-0.075,0.271-0.113,0.406c-2.446,0.081-4.901,0.316-7.338,0.192c-2.13-0.105-2.906-1.308-2.287-3.331
		c1.397-4.582,1.86-9.307,2.036-14.038c0.114-3.063-0.264-6.159-0.598-9.224c-0.477-4.381-1.19-8.734-1.664-13.115
		c-0.374-3.459-0.651-6.938-0.764-10.416c-0.132-4.06,0.49-8.073,1.241-12.053c0.443-2.351,0.309-4.668,0.116-7.028
		c-0.215-2.632-0.143-5.29-0.193-7.934c-0.034-1.847,0.035-3.702-0.115-5.541c-0.303-3.766-0.765-7.519-1.083-11.284
		c-0.353-4.161-0.618-8.329-1.069-12.543c-0.045,0.385-0.103,0.77-0.13,1.153c-0.365,5.095-0.688,10.195-1.102,15.288
		c-0.279,3.434-0.71,6.855-1.021,10.29c-0.079,0.881-0.026,1.79,0.084,2.672c0.409,3.295,0.086,6.557-0.278,9.826
		c-0.105,0.944-0.004,1.914-0.022,2.869c-0.008,0.383-0.085,0.764-0.131,1.146c-6.501,6.514-13.002,13.03-19.503,19.548
		c-0.034-0.015-0.069-0.028-0.104-0.043c-0.221-0.424-0.559-0.825-0.645-1.277c-0.84-4.444-0.656-8.917-0.285-13.39
		c0.396-4.767,0.353-9.5-1.551-13.992c-0.916-2.16-2.009-4.253-3.137-6.313c-2.02-3.693-3.408-7.625-4.525-11.651
		c-1.001-3.604-1.854-7.251-2.748-10.884c-0.077-0.313,0.039-0.672,0.063-1.007c4.076-4.077,8.155-8.155,12.233-12.237
		c0.257-0.258,0.578-0.493,0.724-0.807c0.106-0.229,0.085-0.681-0.074-0.844c-2.155-2.191-4.357-4.34-6.525-6.521
		C545.83,127.86,542.722,124.701,539.606,121.549z M591.859,251.181c0.104,0.087,0.295,0.258,0.302,0.249
		c0.538-0.555,1.062-1.124,1.608-1.716c-0.782-0.37-1.772,0.5-1.908,1.531c-0.452-0.152-0.904-0.307-1.356-0.459
		c0.188-0.886,0.155-1.932,0.638-2.608c0.37-0.521,0.214-0.953,0.069-1.135c-0.269-0.338-0.769-0.621-1.203-0.675
		c-0.934-0.111-1.473,0.627-2.026,1.229c-0.184,0.198-0.23,0.524-0.342,0.794c0.264-0.1,0.559-0.149,0.782-0.304
		c0.639-0.446,1.249-0.936,1.872-1.408c0.14,0.094,0.279,0.189,0.421,0.283c-0.175,0.7-0.354,1.399-0.524,2.1
		c-0.107,0.441-0.249,0.881-0.276,1.326c-0.007,0.111,0.369,0.246,0.567,0.372c-0.363,0.638,0.112,0.857,0.542,1.169
		C591.327,251.658,591.594,251.42,591.859,251.181z M586.663,103.87c-0.032,0.092-0.119,0.232-0.089,0.266
		c0.95,1.033,1.912,2.059,2.871,3.084c0.095-0.094,0.188-0.188,0.282-0.281c-0.809-1.202-1.784-2.241-3.08-2.976
		c0.599-0.814-0.319-0.756-0.687-1.336c-0.181,0.514-0.285,0.808-0.389,1.104C585.936,103.776,586.3,103.823,586.663,103.87z
		 M591.629,105.124c-0.956-0.74-1.765-1.525-0.908-2.85c0.029-0.046-0.067-0.174-0.105-0.263c0.221-0.159,0.653-0.375,0.627-0.466
		c-0.115-0.419-0.279-0.884-0.582-1.172c-0.193-0.186-0.654-0.096-0.978-0.128c0.357,0.682,0.635,1.209,0.912,1.737
		c-0.927,0.42-1.361,1.907-0.771,2.728c0.302,0.42,0.666,0.793,1.094,1.294c0.313-0.415,0.5-0.66,0.685-0.905
		c0.767-0.469,1.489-0.966,1.565-2.227C592.278,103.572,591.499,104.04,591.629,105.124z M597.779,165.438
		c0.39,1.173,1.165,1.937,2.269,2.353c0.084-0.096,0.168-0.191,0.252-0.287c-0.847-0.671-1.692-1.341-2.54-2.015
		c-0.254-0.246-0.488-0.677-0.764-0.703c-0.608-0.061-1.235,0.122-1.856,0.133c-0.532,0.009-1.17,0.085-1.58-0.165
		c-1.353-0.825-3.187-0.698-4.433,1.747c0.463-0.268,0.757-0.365,0.955-0.56c1.366-1.351,1.562-1.377,3.382-0.55
		c0.349,0.16,0.762,0.268,1.142,0.256C595.665,165.616,596.722,165.512,597.779,165.438z M599.03,90.325
		c0.599-0.437,1.203-0.864,1.782-1.323c0.059-0.045,0.002-0.306-0.072-0.421c-0.043-0.068-0.301-0.103-0.333-0.059
		c-0.438,0.602-0.853,1.221-1.274,1.835c-0.793,0.054-1.183,0.638-0.689,1.19c1.067,1.196,2.245,2.293,3.379,3.43
		c0.123-0.076,0.248-0.152,0.372-0.229c-0.177-0.387-0.261-0.873-0.548-1.143c-0.675-0.639-0.942-1.178-0.063-1.849
		c0.158-0.12,0.175-0.425,0.257-0.645c-0.065-0.057-0.131-0.114-0.195-0.17c-0.774,0.746-1.577,1.348-2.549,0.633
		C599.074,91.157,599.052,90.741,599.03,90.325z M601.514,174.414c-1.255-0.404-2.535-0.524-3.589,0.381
		c-1.117,0.961-2.193,2.001-3.114,3.144c-0.688,0.854-1.834,1.609-1.562,2.928c0.266,1.294,0.051,2.267-1.174,2.911
		c-0.145,0.076-0.203,0.315-0.414,0.665c-3.268-1.51-5.074-4.516-7.501-6.794c0.075-0.124-0.005,0.007-0.086,0.142
		c-0.108-0.335-0.146-0.705,0.02-0.874c0.986-0.994,0.741-2.008,0.131-3.046c-0.529-0.898-0.429-1.701,0.326-2.426
		c0.173-0.167,0.312-0.37,0.467-0.557c-0.293-0.154-0.51-0.161-0.663-0.065c-0.916,0.569-1.336,2.052-0.788,3.011
		c0.513,0.894,0.7,1.728,0.258,2.729c-0.321,0.727-0.201,1.457,0.441,2.092c1.747,1.722,3.431,3.514,5.174,5.239
		c1.199,1.189,2.37,1.146,3.537-0.067c1.49-1.549,2.973-3.103,4.447-4.667c0.464-0.493,0.85-1.067,1.342-1.527
		c0.658-0.619,1.523-1.065,2.031-1.777c0.273-0.383,1.093-0.695,0.697-1.453c1.244-0.193,2.243-1.096,2.392-2.157
		c0.137-0.973-0.629-2.059-2.129-2.798c0.192,0.418,0.254,0.679,0.407,0.865c1.396,1.688,1.396,1.878-0.103,3.537
		C601.887,174.042,601.696,174.227,601.514,174.414z M592.213,169.876c-1.425-0.098-2.45,0.62-3.094,1.937
		c-0.719,1.471-0.203,2.843,0.693,3.937c0.899,1.099,2.235,1.313,3.645,0.849c1.443-0.477,2.147-1.518,2.28-2.949
		c0.04-0.432-0.273-0.888-0.38-1.345C594.958,170.603,594,169.832,592.213,169.876z M598.068,98.678
		c0.819-0.678,0.036-0.945-0.224-1.365c-0.181-0.29-0.408-0.859-0.297-0.96c0.346-0.321,0.822-0.585,1.283-0.663
		c0.299-0.05,0.645,0.325,0.992,0.401c0.351,0.076,0.73,0.017,1.097,0.017c0.013-0.102,0.026-0.204,0.039-0.306
		c-0.247-0.145-0.479-0.33-0.743-0.427c-0.802-0.293-1.362-0.637-1.571-1.649c-0.263-1.266-1.753-1.597-2.729-0.751
		c-0.475,0.411-0.94,0.852-1.313,1.352c-0.149,0.201-0.175,0.727-0.024,0.885C595.69,96.381,596.862,97.496,598.068,98.678z
		 M592.881,96.964c1.243,0.427,1.364,0.97,0.187,2.071c-0.097,0.09-0.234,0.166-0.28,0.277c-0.063,0.155-0.059,0.338-0.082,0.508
		c0.174-0.017,0.386,0.024,0.515-0.061c0.274-0.182,0.5-0.435,0.757-0.646c0.505-0.413,1.111-0.515,1.481,0.032
		c0.207,0.304,0.132,0.906-0.009,1.306c-0.17,0.483-0.546,0.893-0.833,1.335c0.08,0.065,0.157,0.132,0.236,0.198
		c0.404-0.407,0.827-0.799,1.21-1.226c0.957-1.063,0.684-2.183-0.605-2.75c-0.297-0.13-0.585-0.439-0.725-0.737
		c-0.366-0.783-1.104-1.195-1.876-0.762c-0.854,0.479-1.601,1.151-2.395,1.739c0.109,0.134,0.218,0.269,0.327,0.403
		C591.418,98.143,592.047,97.636,592.881,96.964z M584.807,109.186c-0.762-0.387-1.282-0.876-1.651-0.78
		c-0.46,0.119-0.938,0.659-1.144,1.133c-0.198,0.456,0.77,1.393,1.187,1.17C583.721,110.428,584.102,109.879,584.807,109.186z
		 M590.327,37.971c-1.008-1.56-2.501-2.674-3.827-4.142C586.597,34.903,589.177,37.705,590.327,37.971z M586.714,110.036
		c-1.713,0.102-3.1,1.49-2.715,2.889C584.926,111.939,585.804,111.005,586.714,110.036z M589.461,100.044
		c-0.059-0.08-0.115-0.159-0.174-0.238c-0.596,0.519-1.21,1.017-1.773,1.567c-0.124,0.121-0.066,0.427-0.093,0.648
		c0.217-0.07,0.508-0.075,0.639-0.222C588.555,101.239,588.997,100.634,589.461,100.044z M588.878,166.817
		c-0.098-0.072-0.196-0.146-0.294-0.218c-0.342,0.351-0.696,0.689-1.015,1.06c-0.078,0.089-0.071,0.294-0.032,0.427
		c0.016,0.052,0.292,0.108,0.328,0.064C588.217,167.718,588.545,167.264,588.878,166.817z"/>
	<path fill-rule="evenodd" clip-rule="evenodd" d="M555.426,209.928c0.034,0.015,0.069,0.028,0.103,0.043
		c0.706,0.729,1.402,1.471,2.12,2.188c4.562,4.568,9.13,9.129,13.691,13.699c0.842,0.842,1.661,1.707,2.49,2.563
		c-0.015,1.143-0.057,2.288-0.037,3.433c0.045,2.778,0.102,5.561,0.183,8.341c0.104,3.599,0.895,7.085,1.795,10.557
		c0.445,1.713-0.459,2.874-2.367,2.985c-1.579,0.092-3.181,0.015-4.757-0.142c-1.908-0.188-3.801-0.531-5.698-0.817
		c-0.294-0.046-0.581-0.138-0.865-0.225c-3.103-0.948-3.393-1.903-2.025-4.829c1.028-2.197,1.521-4.645,2.538-6.849
		c0.992-2.155,0.879-4.033,0.062-6.254c-2.164-5.869-4.06-11.841-5.99-17.797c-0.61-1.885-1.013-3.842-1.452-5.778
		C555.138,210.708,555.348,210.302,555.426,209.928z"/>
	<path fill-rule="evenodd" clip-rule="evenodd" d="M573.83,228.421c-0.829-0.855-1.648-1.721-2.49-2.563
		c-4.562-4.57-9.13-9.131-13.691-13.699c-0.718-0.718-1.414-1.459-2.12-2.188c6.502-6.518,13.003-13.034,19.504-19.548
		c0.251,1.029,0.545,2.052,0.747,3.093c1.122,5.743,1.154,11.523,0.487,17.311c-0.636,5.521-1.365,11.029-2.07,16.542
		C574.15,227.729,573.955,228.07,573.83,228.421z"/>
	<path fill-rule="evenodd" clip-rule="evenodd" d="M539.606,121.549c3.115,3.152,6.224,6.312,9.349,9.455
		c2.168,2.182,4.37,4.33,6.525,6.521c0.159,0.163,0.181,0.615,0.074,0.844c-0.146,0.313-0.467,0.549-0.724,0.807
		c-4.078,4.082-8.157,8.16-12.233,12.237c-0.163-0.263-0.431-0.502-0.482-0.781c-0.579-3.091-3.119-21.728-2.881-28.013
		C539.249,122.26,539.479,121.905,539.606,121.549z"/>
	<path fill-rule="evenodd" clip-rule="evenodd" d="M529.002,100.875c0,0,0.021-0.037,0.021-0.036
		c-1.281,0.065-2.563,0.13-4.065,0.206c0.201-2.362,0.395-4.63,0.609-7.15c1.426,1.3,2.685,2.308,3.756,3.485
		c0.489,0.54,0.614,1.412,0.904,2.133c-0.11-0.005-0.221-0.011-0.331-0.018C529.598,99.955,529.301,100.416,529.002,100.875z"/>
	<path fill-rule="evenodd" clip-rule="evenodd" fill="#FFFFFF" d="M601.489,174.398c0.4,0.76-0.419,1.072-0.692,1.455
		c-0.508,0.712-1.373,1.158-2.031,1.777c-0.492,0.46-0.878,1.034-1.342,1.527c-1.475,1.564-2.957,3.118-4.447,4.667
		c-1.167,1.214-2.338,1.257-3.537,0.067c-1.743-1.726-3.427-3.518-5.174-5.239c-0.643-0.635-0.763-1.365-0.441-2.092
		c0.442-1.001,0.255-1.835-0.258-2.729c-0.548-0.959-0.128-2.441,0.788-3.011c0.153-0.096,0.37-0.089,0.663,0.065
		c-0.155,0.187-0.294,0.39-0.467,0.557c-0.755,0.725-0.855,1.527-0.326,2.426c0.61,1.038,0.855,2.052-0.131,3.046
		c-0.166,0.169-0.128,0.539-0.02,0.874c0.081-0.135,0.161-0.266,0.086-0.142c2.427,2.278,4.233,5.284,7.501,6.794
		c0.211-0.35,0.27-0.589,0.414-0.665c1.225-0.645,1.439-1.617,1.174-2.911c-0.272-1.318,0.874-2.073,1.562-2.928
		c0.921-1.143,1.997-2.183,3.114-3.144c1.054-0.905,2.334-0.785,3.589-0.381L601.489,174.398z"/>
	<path fill-rule="evenodd" clip-rule="evenodd" d="M584.807,109.186c-0.705,0.693-1.086,1.242-1.608,1.522
		c-0.417,0.223-1.385-0.714-1.187-1.17c0.205-0.474,0.684-1.014,1.144-1.133C583.524,108.31,584.045,108.799,584.807,109.186z"/>
	<path fill="#FFFFFF" stroke="#000000" stroke-miterlimit="10" d="M586.714,110.036c-0.91,0.969-1.788,1.903-2.715,2.889
		C583.614,111.526,585.001,110.138,586.714,110.036z"/>
	<g>
		<g>
			<path d="M598.407,86.158c0.101,5.873-0.998,11.117-3.918,16.248c1.523,0.642,3.047,1.284,4.57,1.927
				c0.969-5.89,2.177-11.667,4.259-17.273c1.135-3.059-3.636-4.251-4.822-1.329c-2.629,6.479-6.04,12.527-9.921,18.332
				c1.553,0.421,3.105,0.841,4.658,1.262c0.652-5.04,1.478-9.778,3.46-14.479c-1.607-0.443-3.215-0.886-4.822-1.329
				c-2.695,8.756-6.474,17.045-10.632,25.194c1.522,0.642,3.046,1.284,4.569,1.927c1.457-4.916,3.262-9.66,5.427-14.31
				c-1.522-0.642-3.046-1.284-4.569-1.926c-0.746,3.269-1.676,6.48-2.604,9.701c1.638,0.222,3.274,0.443,4.911,0.665
				c-0.055-3.489-1.299-8.622-0.063-11.929c-1.607-0.443-3.215-0.886-4.821-1.329c-0.453,1.604-1.002,3.179-1.447,4.785
				c-0.882,3.184,3.655,4.245,4.822,1.33c0.473-1.184,0.946-2.367,1.42-3.55c1.198-2.996-3.64-4.285-4.822-1.329
				c-0.473,1.183-0.946,2.367-1.42,3.55c1.607,0.443,3.215,0.886,4.822,1.33c0.444-1.606,0.993-3.182,1.446-4.785
				c0.891-3.155-3.713-4.296-4.821-1.329c-1.438,3.849-0.18,9.216-0.116,13.258c0.044,2.831,4.125,3.394,4.911,0.665
				c0.927-3.222,1.856-6.433,2.604-9.702c0.604-2.646-3.324-4.601-4.569-1.926c-2.348,5.038-4.352,10.172-5.933,15.503
				c-0.798,2.693,3.27,4.475,4.569,1.927c4.353-8.526,8.316-17.225,11.138-26.388c0.978-3.175-3.613-4.196-4.822-1.329
				c-2.153,5.108-2.932,10.352-3.638,15.808c-0.347,2.678,3.425,3.106,4.658,1.262c4.135-6.183,7.629-12.633,10.427-19.526
				c-1.607-0.443-3.215-0.886-4.822-1.329c-2.081,5.607-3.289,11.384-4.259,17.273c-0.438,2.661,3.078,4.548,4.57,1.926
				c3.335-5.861,4.715-12.05,4.6-18.771C603.352,82.937,598.352,82.932,598.407,86.158L598.407,86.158z"/>
		</g>
	</g>
	<g>
		<g>
			<path d="M586.104,159.745c-0.281,5.52-0.961,10.95-2.041,16.371c1.638,0.222,3.274,0.443,4.911,0.665
				c-0.035-3.629-0.201-7.255-0.236-10.884c-0.031-3.228-4.924-3.22-5,0c-0.112,4.749-0.835,9.449-0.947,14.198
				c1.423-0.589,2.845-1.179,4.268-1.768c-0.685-0.636-0.531-2.015-0.775-2.92c-0.842-3.11-5.633-1.794-4.822,1.33
				c0.513,1.973,0.253,3.618,1.826,5.125c1.475,1.413,4.433,0.504,4.268-1.768c-0.453-6.225-0.707-12.458-0.946-18.693
				c-1.667,0-3.333,0-5,0c1.608,13.912,2.324,27.876,2.13,41.88c1.667,0,3.333,0,5,0c-1.396-13.183,1.92-25.665,5.826-38.139
				c-1.638-0.222-3.274-0.443-4.911-0.665c0.229,6.232,0.431,12.457,0.236,18.693c1.667,0,3.333,0,5,0
				c-0.678-12.862,4.734-24.883,9.612-36.484c-1.638-0.222-3.274-0.443-4.911-0.665c0.658,9.612,0.488,19.238,0.475,28.866
				c-0.005,3.316,4.608,3.101,5,0c0.806-6.373,2.788-12.369,5.573-18.142c-1.553-0.421-3.105-0.841-4.658-1.262
				c-0.591,7.814-2.791,15.163-6.283,22.165c1.522,0.199,3.046,0.398,4.569,0.597c-0.56-2.372-0.613-4.72-0.622-7.145
				c-0.011-2.905-4.029-3.296-4.911-0.665c-0.638,1.906-1.098,3.798-2.114,5.556c1.523,0.642,3.047,1.284,4.57,1.927
				c0.758-5.586,1.996-10.98,3.787-16.326c-1.638-0.222-3.274-0.443-4.911-0.665c-0.521,5.621-1.677,11.021-3.461,16.372
				c1.523-0.198,3.047-0.397,4.569-0.597c-0.288-0.657,0.154-2.221,0.104-2.999c-0.172-2.671-4.349-3.578-4.911-0.665
				c-0.747,3.877-1.781,7.688-2.366,11.595c1.638,0.222,3.274,0.443,4.911,0.665c-0.053-4.736-0.391-9.46-0.236-14.197
				c0.107-3.307-4.609-3.098-5,0c-0.529,4.196-1.362,8.345-1.893,12.542c1.667,0,3.333,0,5,0c-0.127-7.985,0.963-15.752,2.987-23.47
				c-1.638-0.222-3.274-0.443-4.911-0.665c-0.24,5.458-0.526,10.899-1.184,16.325c-0.342,2.818,4.305,3.381,4.911,0.665
				c1.058-4.738,2.719-9.292,4.022-13.962c-1.638-0.222-3.274-0.443-4.911-0.665c-0.553,6.909-1.925,13.604-4.17,20.159
				c1.523-0.198,3.047-0.397,4.569-0.597c-0.925-2.182-2.023-4.266-2.823-6.503c-0.752-2.103-4.36-2.651-4.822,0
				c-0.646,3.709-1.762,7.304-1.981,11.078c1.637-0.222,3.273-0.443,4.911-0.665c-0.742-2.819-1.377-5.647-1.893-8.519
				c-0.5-2.782-5.074-2.131-4.911,0.665c0.083,1.42,0.176,2.839,0.235,4.26c1.667,0,3.333,0,5,0c-0.1-1.586-0.36-3.149-0.473-4.734
				c-0.227-3.185-4.959-3.255-5,0c-0.041,3.258-0.286,6.473-0.71,9.703c-0.418,3.19,4.587,3.149,5,0
				c0.424-3.23,0.669-6.445,0.71-9.703c-1.667,0-3.333,0-5,0c0.112,1.585,0.373,3.148,0.473,4.734c0.201,3.193,5.136,3.237,5,0
				c-0.06-1.421-0.152-2.84-0.235-4.26c-1.637,0.222-3.273,0.443-4.911,0.665c0.516,2.87,1.151,5.698,1.893,8.519
				c0.744,2.826,4.751,2.082,4.911-0.665c0.193-3.313,1.236-6.491,1.804-9.748c-1.607,0-3.215,0-4.822,0
				c0.945,2.643,2.234,5.116,3.329,7.696c0.922,2.175,3.952,1.204,4.569-0.597c2.389-6.979,3.761-14.145,4.348-21.489
				c0.229-2.875-4.171-3.316-4.911-0.665c-1.303,4.671-2.965,9.225-4.022,13.962c1.638,0.222,3.274,0.443,4.911,0.665
				c0.657-5.426,0.943-10.867,1.184-16.325c0.125-2.849-4.202-3.368-4.911-0.665c-2.133,8.135-3.299,16.382-3.165,24.8
				c0.053,3.315,4.607,3.106,5,0c0.53-4.196,1.362-8.345,1.893-12.542c-1.667,0-3.333,0-5,0c-0.154,4.737,0.184,9.461,0.236,14.197
				c0.03,2.729,4.482,3.527,4.911,0.665c0.585-3.908,1.618-7.719,2.366-11.595c-1.638-0.222-3.274-0.443-4.911-0.665
				c0.129,2.003-0.251,3.633,0.579,5.522c0.94,2.144,3.958,1.235,4.569-0.597c1.925-5.777,3.078-11.645,3.639-17.702
				c0.272-2.944-4.06-3.205-4.911-0.665c-1.791,5.347-3.028,10.741-3.787,16.326c-0.357,2.635,3.036,4.58,4.57,1.927
				c1.229-2.126,1.842-4.433,2.618-6.749c-1.638-0.222-3.274-0.443-4.911-0.665c0.011,2.889,0.136,5.657,0.8,8.475
				c0.481,2.039,3.604,2.533,4.569,0.597c3.896-7.811,6.308-15.972,6.967-24.688c0.185-2.442-3.592-3.474-4.658-1.262
				c-3.19,6.611-5.336,13.373-6.257,20.665c1.667,0,3.333,0,5,0c0.014-9.628,0.184-19.254-0.475-28.866
				c-0.203-2.962-3.837-3.219-4.911-0.665c-5.061,12.037-10.493,24.478-9.79,37.814c0.169,3.209,4.899,3.235,5,0
				c0.194-6.236-0.007-12.461-0.236-18.693c-0.104-2.839-4.061-3.38-4.911-0.665c-4.03,12.874-7.443,25.871-6.004,39.469
				c0.332,3.14,4.954,3.29,5,0c0.194-14.004-0.521-27.968-2.13-41.88c-0.36-3.118-5.126-3.29-5,0
				c0.239,6.235,0.493,12.469,0.946,18.693c1.423-0.589,2.845-1.179,4.268-1.768c-0.465-0.445-0.366-2.252-0.539-2.92
				c-1.607,0.443-3.215,0.887-4.822,1.33c0.541,1.997,0.452,3.63,2.063,5.125c1.604,1.488,4.215,0.452,4.268-1.768
				c0.112-4.749,0.835-9.449,0.947-14.198c-1.667,0-3.333,0-5,0c0.035,3.629,0.201,7.255,0.236,10.884
				c0.027,2.753,4.347,3.497,4.911,0.665c1.166-5.858,1.914-11.735,2.219-17.701C591.268,156.521,586.268,156.537,586.104,159.745
				L586.104,159.745z"/>
		</g>
	</g>
	<g>
		<g>
			<path d="M529.315,91.839c-0.562,6.364-2.366,12.751-2.366,19.148c0,3.224,5,3.224,5,0c0-5.108,0.472-10.239,0.473-15.363
				c0.001-2.315-3.63-3.645-4.659-1.262c-1.38,3.197-3.265,7.678-3.227,11.198c0.015,1.386,1.127,2.47,2.5,2.5
				c0.016,0,0.031,0.001,0.047,0.001c3.227,0.072,3.219-4.928,0-5c-0.016,0-0.031,0-0.047-0.001c0.833,0.833,1.667,1.667,2.5,2.5
				c0.007,0.682,0.219-0.884,0.272-1.093c0.229-0.897,0.492-1.787,0.75-2.677c0.446-1.54,1.003-3.702,1.522-4.905
				c-1.554-0.42-3.106-0.841-4.659-1.262c-0.001,5.124-0.473,10.255-0.473,15.363c0,3.224,5,3.224,5,0
				c0-6.39,1.805-12.781,2.366-19.148C534.599,88.626,529.597,88.653,529.315,91.839L529.315,91.839z"/>
		</g>
	</g>
	<g>
		<g>
			<path d="M529.054,85.896c-4.219,6.805-6.744,14.146-6.731,22.203c0.005,3.224,5.005,3.225,5,0
				c-0.011-7.218,2.274-13.591,6.048-19.68C535.074,85.671,530.748,83.163,529.054,85.896L529.054,85.896z"/>
		</g>
	</g>
	<g>
		<g>
			<path d="M525.695,90.708c0.104,2.108-0.409,3.923-1.612,5.659c-0.777,1.122-0.21,2.771,0.897,3.42
				c1.244,0.729,2.646,0.221,3.421-0.897c1.657-2.392,2.436-5.283,2.294-8.183C530.538,87.499,525.537,87.483,525.695,90.708
				L525.695,90.708z"/>
		</g>
	</g>
	<g>
		<g>
			<path d="M530.397,87.204c-0.683,2.828-1.557,5.553-3.297,7.921c1.522,0.199,3.046,0.398,4.569,0.597
				c-0.499-1.292-0.919-2.613-1.419-3.904c-1.008-2.599-4.755-2.264-4.911,0.665c-0.016,0.211-0.01,0.2,0.02-0.034
				c-0.048,0.333-0.123,0.662-0.196,0.99c-0.055,0.235-0.118,0.468-0.189,0.699c-0.235,0.81-0.211-0.17,0.959-0.517
				c-3.084,0.914-1.77,5.74,1.33,4.821c2.362-0.7,2.962-3.811,3.077-5.96c-1.637,0.222-3.273,0.443-4.911,0.665
				c0.501,1.292,0.92,2.612,1.419,3.904c0.813,2.105,3.239,2.406,4.569,0.597c1.969-2.677,3.029-5.917,3.803-9.115
				C535.977,85.399,531.155,84.07,530.397,87.204L530.397,87.204z"/>
		</g>
	</g>
</g>
<g>
	<path fill-rule="evenodd" clip-rule="evenodd" d="M1022.988,107.766c-0.081-0.199-0.314-0.367-0.515-0.483
		c-0.556-0.322-0.427-0.629,0.004-0.914c0.165-0.109,0.386-0.131,0.416-0.141c0-2.564,0.082-5.011-0.018-7.45
		c-0.172-4.12-0.486-8.229-1.866-12.17c-1.284-3.674-1.597-7.473-1.563-11.34c0.024-2.66-0.582-5.255-1.752-7.632
		c-1.599-3.248-4.587-4.583-7.954-5.215c-1.243-0.232-2.524-0.266-3.754-0.541c-1.512-0.336-2.984-0.836-4.481-1.24
		c-0.215-0.059-0.468,0.027-0.703,0.047c-2.434,2.431-4.869,4.863-7.443,7.435c-4.567-4.601-9.054-9.119-13.539-13.638
		c-0.188,0.213-0.475,0.396-0.55,0.643c-0.756,2.51-2.349,4.146-4.897,4.833c-1.59,0.428-3.175,0.875-4.762,1.313
		c-0.911,0.252-1.812,0.563-2.738,0.742c-1.582,0.306-3.224,0.381-4.764,0.819c-3.471,0.985-5.963,3.057-7.007,6.688
		c-0.727,2.525-1.082,5.072-1.057,7.687c0.025,2.741-0.281,5.437-1.107,8.064c-0.457,1.449-1.013,2.892-1.239,4.38
		c-0.442,2.908-0.694,5.845-1.004,8.772c-0.078,0.756-0.08,1.521-0.124,2.438c0.764-0.602,1.355-1.066,1.946-1.531
		c0.303-0.372,0.605-0.743,0.907-1.114c0.55-0.517,1.099-1.032,1.649-1.549l-0.026,0.03c0.573-0.571,1.088-1.226,1.737-1.691
		c0.777-0.558,1.627-0.347,2.4,0.157c0,0-0.02-0.053-0.021-0.054c0.304,0.21,0.727,0.669,0.894,0.591
		c1.194-0.566,2.399-0.656,3.671-0.211c0.477-2.364,0.928-4.609,1.38-6.852c0.338,0.548,0.48,1.063,0.654,1.567
		c0.959,2.784,2.053,5.527,2.422,8.48c0.124,0.991,0.078,2.039,0.938,2.812c0.131,0.119,0.056,0.522,0.003,0.779
		c-0.15,0.738-0.466,1.464-0.488,2.204c-0.104,3.458-0.108,6.922-0.207,10.383c-0.021,0.743-0.19,1.516-0.45,2.215
		c-1.145,3.069-2.044,6.203-2.413,9.457c-0.278,2.457-0.443,4.928-0.613,7.393c-0.313,4.559-0.782,9.116-0.839,13.678
		c-0.05,4.058,0.291,8.121,0.514,12.183c0.323,1.019,0.551,2.056,0.721,3.104c0.132-0.111,0.253-0.209,0.37-0.271
		c0.213-0.111,0.465-0.149,0.7-0.22c-0.08,0.231-0.101,0.514-0.248,0.686c-0.322,0.377-0.528,0.631-0.666,0.855
		c0.019,0.148,0.032,0.299,0.049,0.448c0.185,0.664,0.362,1.331,0.533,2.001c0.186-1.346,0.934-2.068,1.693-1.6
		c-0.286,0.306-0.635,0.563-0.814,0.909c-0.144,0.276-0.204,0.717-0.081,0.982c0.166,0.353,0.573,0.585,0.819,0.911
		c0.102,0.134,0.055,0.379,0.076,0.574c-0.2-0.005-0.48,0.071-0.59-0.032c-0.304-0.292-0.596-0.595-0.883-0.899
		c0.938,3.839,1.596,7.757,1.945,11.664c0.159,0.597,0.319,1.194,0.478,1.792c0.814,3.071,1.47,6.121,0.917,9.371
		c-0.514,3.024-0.747,6.105-0.965,9.172c-0.328,4.637,0.6,9.146,1.546,13.657c0.898,4.275,1.632,8.585,2.441,12.879
		c0.177,0.938,0.364,1.871,0.548,2.807c2.757-2.781,5.513-5.563,8.27-8.344c0.13-0.319,0.33-0.631,0.381-0.963
		c0.613-3.975,1.284-7.943,1.781-11.933c0.648-5.205,0.278-10.381-0.739-15.52c-0.489-2.471-0.718-4.959-0.255-7.469
		c0.617-3.352,0.881-6.72,0.61-10.134c-0.111-1.412-0.152-2.866,0.05-4.263c1.015-7.015,1.523-14.064,1.643-21.146
		c0.033-1.987,0.006-3.976,0.006-5.873c1.177-0.061,2.17-0.14,3.163-0.138c0.176,0,0.354,0.334,0.53,0.513
		c1.162-1.15,2.32-2.302,3.489-3.446c0.245-0.24,0.523-0.447,0.787-0.67c1.382-1.43,2.748-2.877,4.151-4.285
		c1.757-1.767,3.548-3.501,5.319-5.254c1.347-1.333,2.688-2.669,4.023-4.011c0.356-0.358,0.687-0.741,1.029-1.113
		c0.02-0.241,0.099-0.497,0.049-0.723c-0.219-1.02-0.438-2.043-0.726-3.047c-0.522-1.822-1.414-3.604-1.57-5.452
		c-0.299-3.504-0.147-7.042-0.252-10.563c-0.167-5.682,1.35-10.998,3.467-16.196c0.063,0.248,0.149,0.517,0.201,0.793
		c1.166,6.294,2.437,12.563,4.623,18.603c0.084,0.232,0.128,0.496,0.119,0.741c-0.192,5.051,0.556,9.992,1.715,14.885
		c0.881,3.727,1.768,7.451,2.639,11.179c0.316,1.351,0.136,2.561-0.984,3.547c-0.444,0.392-0.893,0.885-1.094,1.423
		c-0.671,1.799-1.294,3.621-1.815,5.468c-0.347,1.228-0.489,2.512-0.722,3.765c0.988,0.262,1.381-0.223,1.668-0.823
		c0.328-0.685,0.542-1.435,0.934-2.078c0.485-0.798,1.102-1.515,1.66-2.267c0.588,3.321-0.494,6.077-2.123,8.691
		c-0.367,0.59-0.748,1.192-0.981,1.839c-0.325,0.9,0.275,1.531,1.192,1.285c0.54-0.145,1.108-0.343,1.555-0.669
		c4.381-3.194,6.7-7.637,7.363-12.911c0.22-1.748-0.37-3.585-0.296-5.369c0.191-4.562,0.52-9.117,0.845-13.671
		C1025.294,117.777,1024.944,112.671,1022.988,107.766z M1018.626,112.576c0.023-0.695,0.512-1.119,1.176-1.114
		c0.7,0.005,1.079,0.544,1.108,1.19c0.032,0.702-0.478,0.967-1.15,1.015C1019.115,113.607,1018.601,113.312,1018.626,112.576z
		 M1020.46,115.568c-0.221-1.034,1.287-2.571,2.225-2.275C1021.922,114.072,1021.188,114.822,1020.46,115.568z"/>
	<path fill-rule="evenodd" clip-rule="evenodd" d="M988.657,143.314c1.162-1.15,2.32-2.302,3.489-3.446
		c0.245-0.24,0.523-0.447,0.787-0.67c0.646,0.689,1.276,1.395,1.942,2.063c1.226,1.235,2.482,2.439,3.71,3.671
		c1.784,1.792,3.554,3.6,5.336,5.394c1.737,1.749,3.481,3.491,5.223,5.236c0.01,0.751,0.099,1.511,0.016,2.25
		c-0.637,5.658-1.122,11.34-2.637,16.863c-0.796,2.895-1.505,5.814-2.341,8.698c-0.758,2.612-0.507,5.192-0.086,7.808
		c0.285,1.78,0.427,3.583,0.606,5.378c0.022,0.227-0.12,0.471-0.184,0.704c-1.337,1.352-2.672,2.706-4.017,4.052
		c-2.42,2.424-4.846,4.844-7.269,7.265c-1.122-1.142-2.245-2.282-3.366-3.424c-0.087-0.428-0.237-0.854-0.251-1.283
		c-0.128-4.104,0.196-8.17,1.063-12.187c0.722-3.35,0.34-6.658-0.146-10.009c-0.324-2.237-0.178-4.543-0.266-6.816
		c-0.093-2.399-0.144-4.802-0.337-7.19c-0.299-3.662-0.81-7.309-1.035-10.975c-0.25-4.051-0.288-8.113-0.401-12.173
		C988.484,144.123,988.601,143.717,988.657,143.314z"/>
	<path fill-rule="evenodd" clip-rule="evenodd" d="M1000.802,60.688c-2.434,2.431-4.869,4.863-7.443,7.435
		c-4.567-4.601-9.054-9.119-13.539-13.638c-0.106-0.281-0.337-0.582-0.3-0.842c0.239-1.643-0.78-2.97-1.125-4.461
		c-0.222-0.96-1.056-1.774-1.592-2.668c-0.176-0.295-0.34-0.624-0.406-0.958c-0.433-2.186-0.71-4.413-1.288-6.557
		c-0.567-2.099,0.283-4.075,0.193-6.111c-0.002-0.032-0.006-0.071,0.008-0.094c0.955-1.574,1.537-3.413,3.09-4.566
		c3.902-2.903,8.297-3.036,12.773-1.966c2.452,0.585,4.662,1.773,5.774,4.307c0.175,0.397,0.509,0.723,0.745,1.097
		c0.199,0.315,0.533,0.66,0.517,0.979c-0.103,2.042,0.6,3.993,0.285,6.119c-0.336,2.273-0.87,4.493-1.372,6.714
		c-0.269,1.184-1.19,2.208-1.736,3.344c-0.351,0.729-0.491,1.558-0.835,2.292c-0.859,1.832-0.463,3.571,0.263,5.309
		c0.958,2.297,2.962,3.167,5.15,3.802C1000.263,60.308,1000.524,60.529,1000.802,60.688z"/>
	<path fill-rule="evenodd" clip-rule="evenodd" d="M993.234,208.58c2.423-2.421,4.849-4.841,7.269-7.265
		c1.345-1.346,2.68-2.7,4.017-4.052c0.089,0.286,0.241,0.568,0.262,0.856c0.362,4.856-0.289,9.61-1.364,14.34
		c-0.884,3.89-1.745,7.796-2.328,11.736c-0.494,3.348-0.683,6.754-0.784,10.141c-0.034,1.141,0.619,2.302,0.945,3.457
		c0.307,1.095,0.522,2.22,0.911,3.283c0.486,1.331,1.106,2.614,1.675,3.915c0.177,0.404,0.404,0.789,0.56,1.202
		c0.319,0.857,0.078,1.515-0.687,2.052c-1.544,1.081-3.347,1.32-5.119,1.627c-1.404,0.241-2.827,0.387-4.249,0.505
		c-2.285,0.19-3.344-1.087-2.707-3.304c1.393-4.855,2.074-9.834,1.907-14.849c-0.118-3.525-0.828-7.038-1.382-10.539
		c-0.508-3.222-1.172-6.42-1.721-9.637c-0.051-0.296,0.232-0.647,0.361-0.974C991.61,210.246,992.423,209.413,993.234,208.58z"/>
	<path fill-rule="evenodd" clip-rule="evenodd" d="M955.884,154.538c0.916-0.599,2.014-0.938,3.107-0.908
		c-0.06-0.099-0.12-0.198-0.173-0.298c-0.709-1.345-1.471-2.665-2.113-4.04c-0.796-1.7-0.87-3.523-0.745-5.511
		c0.206,0.168,0.293,0.24,0.381,0.31c1.234,1.013,1.769,2.446,2.341,3.859c0.295,0.726,0.706,1.262,1.771,1.029
		c-0.228-1.249-0.433-2.455-0.669-3.654c-0.557-2.823-1.271-5.561-3.473-7.661c-0.377-0.359-0.567-1.078-0.568-1.631
		c-0.001-0.91,0.162-1.833,0.364-2.726c1.118-4.937,2.326-9.854,3.375-14.807c0.404-1.912,0.474-3.897,0.67-5.851
		c0.016-0.165-0.175-0.353-0.271-0.528c-0.097,0.132-0.191,0.266-0.292,0.394c-0.661,0.843-1.232,1.821-2.552,1.633l-0.718-0.296
		c-1.167-0.165-1.689-1.111-2.32-1.924c-0.769-0.744-1.538-1.488-2.305-2.227c-0.374-0.348-0.751-0.7-1.194-1.111
		c-1.178,2.317-1.709,4.626-1.857,7.003c-0.333,5.337,0.168,10.647,0.651,15.958c0.208,2.292,0.545,4.586-0.056,6.898
		c-0.248,0.961-0.273,2.025-0.178,3.021c0.397,4.122,1.988,7.774,4.65,10.932C954.369,153.186,955.072,153.938,955.884,154.538z"/>
	<path fill-rule="evenodd" clip-rule="evenodd" d="M1009.145,155.563c-1.741-1.745-3.485-3.487-5.223-5.236
		c-1.782-1.794-3.552-3.602-5.336-5.394c-1.228-1.231-2.484-2.436-3.71-3.671c-0.666-0.669-1.297-1.374-1.942-2.063
		c1.382-1.43,2.748-2.877,4.151-4.285c1.757-1.767,3.548-3.501,5.319-5.254c1.347-1.333,2.688-2.669,4.023-4.011
		c0.356-0.358,0.687-0.741,1.029-1.113c0.186,0.605,0.472,1.201,0.539,1.82c0.233,2.141,0.425,4.287,0.569,6.438
		c0.326,4.834,0.684,9.669,0.89,14.512c0.111,2.622-0.06,5.258-0.116,7.889C1009.336,155.317,1009.213,155.439,1009.145,155.563z"/>
	<path fill-rule="evenodd" clip-rule="evenodd" d="M973.218,228.583c2.757-2.781,5.513-5.563,8.27-8.344
		c-0.204,1.433-0.328,2.88-0.627,4.292c-1.077,5.12-1.195,10.257-0.324,15.405c0.417,2.46,0.945,4.9,1.442,7.347
		c0.426,2.105-0.451,3.299-2.571,3.08c-2.575-0.268-5.125-0.791-7.685-1.209c-0.155-0.026-0.305-0.088-0.451-0.146
		c-2.429-0.967-2.821-1.85-1.475-4.074c1.215-2.005,1.566-4.261,2.255-6.42c0.106-0.331,0.188-0.678,0.34-0.988
		c1.147-2.34,0.9-4.81,0.718-7.278C973.069,229.698,973.179,229.138,973.218,228.583z"/>
	<path fill-rule="evenodd" clip-rule="evenodd" d="M957.036,114.148c-0.239-0.099-0.479-0.197-0.718-0.296
		c-0.1-0.159-0.167-0.356-0.304-0.471c-0.636-0.533-0.968-1.495-2.017-1.453c-0.769-0.744-1.538-1.488-2.305-2.227
		c-0.268-0.503-0.61-0.988-0.787-1.526c-0.155-0.477-0.267-1.052-0.146-1.519c0.212-0.819,0.258-1.504-0.046-2.361
		c-0.375-1.063-0.531-2.263,0.596-3.21c0.521-0.438,0.807-1.156,1.202-1.75c0.307-0.375,0.609-0.746,0.911-1.117
		c1.258-0.052,1.693-0.462,1.649-1.549l-0.026,0.03c0.323-0.104,0.794-0.107,0.948-0.33c0.803-1.158,2.03-1.065,3.189-1.204
		c0,0-0.02-0.053-0.021-0.054c0.313,0.94,0.732,1.163,1.719,0.899c0.397-0.105,0.784-0.285,1.188-0.33
		c0.805-0.092,1.497,0.57,1.323,1.337c-0.488,2.155-1.621,6.252-2.146,8.359c-0.501-0.868-0.322-3.716-0.899-4.458
		c-0.756-0.971-1.904-0.908-2.989-0.758c-1.186,0.164-2.34,1.484-2.462,2.71c-0.174,1.755,0.58,3.008,2.222,3.687
		c1.252,0.518,2.977-0.031,4.129-1.181c-0.392,0.941-0.604,2.027-1.217,2.789c-0.845,1.048-1.058,2.113-0.804,3.365
		c0.027-0.289,0.055-0.578,0.099-1.041c0.29,1.179,0.085,1.968-0.881,2.53C957.931,113.319,957.502,113.77,957.036,114.148z"/>
	<path fill-rule="evenodd" clip-rule="evenodd" d="M993.234,208.58c-0.812,0.833-1.624,1.666-2.435,2.496
		c-0.189-0.075-0.539-0.138-0.546-0.226c-0.151-1.896-0.266-3.795-0.386-5.694C990.989,206.298,992.112,207.438,993.234,208.58z"/>
	<path fill-rule="evenodd" clip-rule="evenodd" d="M1019.76,113.667c-0.645-0.06-1.159-0.355-1.134-1.091
		c0.023-0.695,0.512-1.119,1.176-1.114c0.7,0.005,1.079,0.544,1.108,1.19C1020.942,113.354,1020.433,113.619,1019.76,113.667z"/>
	<path fill-rule="evenodd" clip-rule="evenodd" d="M1022.685,113.293c-0.763,0.779-1.497,1.529-2.225,2.275
		C1020.239,114.534,1021.747,112.997,1022.685,113.293z"/>
	<path fill-rule="evenodd" clip-rule="evenodd" fill="#FFFFFF" d="M959.185,95.167c-1.159,0.139-2.387,0.045-3.189,1.204
		c-0.154,0.223-0.625,0.226-0.948,0.33c0.573-0.571,1.088-1.226,1.737-1.691C957.562,94.452,958.411,94.663,959.185,95.167z"/>
	<path fill-rule="evenodd" clip-rule="evenodd" fill="#FFFFFF" d="M955.073,96.67c0.044,1.087-0.392,1.497-1.649,1.549
		C953.974,97.703,954.522,97.187,955.073,96.67z"/>
	<path fill-rule="evenodd" clip-rule="evenodd" fill="#FFFFFF" d="M953.998,111.929c1.049-0.042,1.381,0.92,2.017,1.453
		c0.137,0.114,0.204,0.312,0.304,0.471C955.151,113.688,954.629,112.741,953.998,111.929z"/>
	<g>
		<g>
			<path d="M954.843,92.96c0.154,5.64-0.77,11.059-2.852,16.305c1.637,0.222,3.273,0.443,4.91,0.665
				c0.021-4.764,0.248-9.51,0.679-14.254c0.292-3.212-4.711-3.184-5,0c-0.431,4.744-0.658,9.491-0.679,14.254
				c-0.013,3.005,3.92,3.16,4.91,0.665c2.232-5.624,3.196-11.594,3.031-17.635C959.755,89.742,954.755,89.734,954.843,92.96
				L954.843,92.96z"/>
		</g>
	</g>
	<g>
		<g>
			<path d="M953.712,109.478c0.195,2.941,0.224,5.878,0.226,8.825c1.637-0.222,3.273-0.443,4.911-0.665
				c-1.492-5.118-2.156-10.311-2.4-15.627c-0.147-3.21-5.148-3.225-5,0c0.265,5.745,0.967,11.424,2.578,16.957
				c0.788,2.702,4.912,2.187,4.911-0.665c-0.002-2.946-0.03-5.884-0.226-8.825C958.5,106.278,953.499,106.257,953.712,109.478
				L953.712,109.478z"/>
		</g>
	</g>
	<g>
		<g>
			<path d="M989.101,209.03c0.744,2.457,1.354,4.951,1.865,7.468c0.643,3.158,5.462,1.817,4.822-1.33
				c-0.512-2.516-1.122-5.01-1.867-7.468C992.989,204.623,988.163,205.936,989.101,209.03L989.101,209.03z"/>
		</g>
	</g>
	<g>
		<g>
			<path d="M956.766,89.228c-0.705,7.145-1.686,14.256-2.546,21.383c-0.386,3.196,4.618,3.159,5,0
				c0.86-7.127,1.841-14.238,2.546-21.383C962.082,86.02,957.079,86.05,956.766,89.228L956.766,89.228z"/>
		</g>
	</g>
	<g>
		<g>
			<path d="M958.803,90.246c0.868,8.274-1.433,15.512-3.983,23.265c-1.012,3.072,3.817,4.378,4.82,1.33
				c2.688-8.168,5.075-15.9,4.163-24.595C963.47,87.073,958.467,87.041,958.803,90.246L958.803,90.246z"/>
		</g>
	</g>
	<g>
		<g>
			<path d="M949.728,97.529c0.568,4.235,0.39,8.556-0.34,12.757c-0.547,3.153,4.271,4.501,4.822,1.33
				c0.895-5.159,1.036-10.226,0.338-15.416C954.12,93.017,949.304,94.378,949.728,97.529L949.728,97.529z"/>
		</g>
	</g>
	<g>
		<g>
			<path d="M960.16,92.452c-0.176,2.3-0.619,4.55-1.099,6.803c-0.671,3.145,4.148,4.482,4.82,1.329
				c0.573-2.688,1.068-5.389,1.278-8.132C965.406,89.234,960.404,89.258,960.16,92.452L960.16,92.452z"/>
		</g>
	</g>
	<g>
		<g>
			<path d="M1017.864,104.746c0.896,1.538,1.517,3.166,2.123,4.833c0.466,1.28,1.682,2.129,3.076,1.747
				c1.233-0.34,2.212-1.794,1.746-3.076c-0.75-2.061-1.521-4.128-2.629-6.028C1020.559,99.439,1016.236,101.955,1017.864,104.746
				L1017.864,104.746z"/>
		</g>
	</g>
</g>
<text transform="matrix(1 0 0 1 23.9961 134.9336)" font-family="'Aparajita'" font-size="109.6214">Let Us Make</text>
<text transform="matrix(0.9263 0 0 1 666.4941 134.9326)" font-family="'Aparajita'" font-size="109.2">Change</text>
<text transform="matrix(1 0 0 1 1053.0537 141.0225)" font-family="'Aparajita'" font-size="109.2">You         </text>
<g>
	<g>
		<path d="M991.384,199.154c0.041,4.107,0.494,8.178,1,12.25c0.393,3.159,4.738,3.272,5,0c0.365-4.567,1.903-8.957,2.5-13.5
			c-1.637,0.222-3.273,0.443-4.91,0.665c0.495,2.818,1.837,5.405,2.25,8.25c0.414,2.859,4.89,2.066,4.91-0.665
			c0.023-3.085,0.225-6.165,0.25-9.25c-1.055,0.804-2.109,1.607-3.164,2.411c0.456-0.327,0.626-0.343,0.51-0.05
			c-0.086,0.395-0.209,0.772-0.281,1.171c-0.195,1.078-0.038,2.04,0.527,2.979c1.658,2.76,5.982,0.247,4.316-2.523
			c0.002,0.621,0.052,0.655,0.15,0.101c0.079-0.263,0.145-0.529,0.195-0.799c0.133-0.61,0.223-1.525-0.002-2.129
			c-0.744-1.999-2.169-2.818-4.088-3.572c-1.55-0.608-3.151,0.919-3.164,2.411c-0.025,3.085-0.227,6.165-0.25,9.25
			c1.637-0.222,3.273-0.443,4.91-0.665c-0.412-2.844-1.754-5.431-2.25-8.25c-0.534-3.042-4.578-1.863-4.91,0.665
			c-0.598,4.555-2.132,8.9-2.5,13.5c1.667,0,3.333,0,5,0c-0.506-4.072-0.959-8.143-1-12.25
			C996.352,195.932,991.352,195.929,991.384,199.154L991.384,199.154z"/>
	</g>
</g>
<g>
	<g>
		<path d="M973.884,219.654c0,3.523,0,7.048,0,10.572c0,3.224,5,3.224,5,0c0-3.916,1.211-7.831,1.91-11.657
			c-1.637-0.222-3.273-0.443-4.91-0.665c0.209,2.663,0.058,5.335,0.25,8c0.23,3.196,5.232,3.219,5,0
			c-0.192-2.665-0.041-5.337-0.25-8c-0.207-2.64-4.373-3.608-4.91-0.665c-0.779,4.262-2.09,8.624-2.09,12.987c0,3.224,5,3.224,5,0
			c0-3.524,0-7.049,0-10.572C978.884,216.43,973.884,216.43,973.884,219.654L973.884,219.654z"/>
	</g>
</g>
<g>
	<g>
		<path d="M997.474,128.319c0.601,2.676,1.004,5.925-0.438,8.193c-0.312,0.49-0.722,0.721-1.143,0.847
			c-0.598,0.18,0.146,0.083-0.661,0.036c0.479,0.028-0.325-0.184-0.102-0.066c-0.395-0.206-0.168,0.033-0.285-0.445
			c0.102,0.414,0.066-0.415,0.056-0.368c0.113-0.514,0.179-0.601,0.512-1.174c2.015-3.478,6.55-5.6,9.982-7.279
			c-1.225-0.94-2.448-1.882-3.672-2.823c-0.977,4.767-4.357,7.489-8.102,10.257c-2.563,1.894-0.073,6.236,2.523,4.316
			c4.763-3.519,9.152-7.159,10.398-13.243c0.454-2.216-1.656-3.81-3.672-2.823c-4.485,2.193-10.218,5.234-12.303,10.114
			c-1.215,2.843-0.785,6.313,2.193,7.867c2.683,1.399,5.992,0.486,7.896-1.772c3.016-3.576,2.592-8.707,1.635-12.966
			C1001.588,123.845,996.768,125.179,997.474,128.319L997.474,128.319z"/>
	</g>
</g>
<g>
	<g>
		<path d="M979.474,52.069c1.16,6.819,3.75,13.292,7.502,19.097c1.112,1.722,4.066,1.622,4.568-0.597
			c0.413-1.82,0.382-3.674,0.75-5.5c-1.224,0.498-2.447,0.996-3.672,1.494c0.44,0.333,1.256,0.524,1.773,0.715
			c0.606,0.224,1.213,0.449,1.817,0.679c1.118,0.425,0.729,0.649,0.263-0.291c0.661,1.33,2.963,1.745,3.926,0.506
			c1.004-1.291,2.139-2.195,3.494-3.109c2.658-1.792,0.158-6.125-2.523-4.317c-1.688,1.138-3.247,2.271-4.506,3.891
			c1.309,0.168,2.617,0.337,3.926,0.506c-0.509-1.024-1.698-1.371-2.67-1.779c-0.597-0.25-1.21-0.468-1.817-0.694
			c-0.275-0.103-1.798-0.907-1.159-0.424c-1.251-0.946-3.376,0.027-3.672,1.494c-0.368,1.822-0.341,3.691-0.75,5.5
			c1.522-0.199,3.046-0.398,4.568-0.597c-3.542-5.482-5.902-11.467-6.998-17.903C983.755,47.566,978.937,48.916,979.474,52.069
			L979.474,52.069z"/>
	</g>
</g>
<g>
	<g>
		<path d="M967.726,101.416c0.75,1.174,1.134,2.375,1.158,3.738c0.058,3.221,5.058,3.226,5,0c-0.04-2.227-0.639-4.38-1.842-6.262
			c-0.732-1.146-2.209-1.606-3.42-0.897C967.482,98.663,966.99,100.267,967.726,101.416L967.726,101.416z"/>
	</g>
</g>
<g>
	<g>
		<path d="M554.973,205.319c1.761,9.728,6.439,18.692,15.399,23.493c2.841,1.522,5.366-2.794,2.523-4.316
			c-7.896-4.231-11.561-11.994-13.101-20.507C559.221,200.82,554.402,202.167,554.973,205.319L554.973,205.319z"/>
	</g>
</g>
<g>
	<g>
		<path d="M987.474,138.069c0.798,3.603,1.799,6.845,4.002,9.847c1.283,1.749,3.837,1.573,4.568-0.597
			c1.272-3.772,3.438-7.146,4.5-11c-1.522,0.198-3.046,0.397-4.568,0.597c4.39,6.564,6.171,13.995,7.158,21.738c1.667,0,3.333,0,5,0
			c-0.915-6.966-3.453-12.85-7.592-18.512c-1.882-2.574-6.223-0.084-4.316,2.523c3.55,4.857,6.116,9.957,6.908,15.988
			c0.413,3.146,5.408,3.197,5,0c-1.1-8.62-2.945-16.941-7.842-24.262c-1.174-1.756-3.968-1.585-4.568,0.597
			c-1.059,3.837-3.23,7.232-4.5,11c1.522-0.198,3.046-0.397,4.568-0.597c-1.95-2.658-2.793-5.473-3.498-8.653
			C991.597,133.592,986.776,134.927,987.474,138.069L987.474,138.069z"/>
	</g>
</g>
<g>
	<g>
		<path d="M965.884,160.154c0.307,2.878,0.328,5.813,0.84,8.665c0.568,3.17,5.386,1.822,4.82-1.33
			c-0.04-0.248-0.045-0.253-0.013-0.014c-0.041-0.318-0.07-0.639-0.103-0.958c-0.064-0.662-0.116-1.325-0.17-1.988
			c-0.117-1.459-0.22-2.919-0.375-4.375c-0.145-1.354-1.028-2.5-2.5-2.5C967.13,157.654,965.739,158.797,965.884,160.154
			L965.884,160.154z"/>
	</g>
</g>
<g>
	<g>
		<path d="M964.474,161.069c0.661,2.414,1.399,4.837,1.66,7.335c0.142,1.354,1.03,2.5,2.5,2.5c1.256,0,2.642-1.142,2.5-2.5
			c-0.31-2.966-1.053-5.797-1.84-8.665C968.443,156.634,963.619,157.954,964.474,161.069L964.474,161.069z"/>
	</g>
</g>
<g>
	<g>
		<path d="M951.974,90.865c-0.539,3.806-1.396,7.536-2.375,11.25c-0.73,2.767,3.091,4.349,4.568,1.926
			c2.508-4.108,4.031-8.683,5.127-13.347c-1.606,0-3.214,0-4.82,0c1.354,3.719,1.158,7.566,1.035,11.46c1.667,0,3.333,0,5,0
			c-0.47-4.036,0.379-7.62,2.658-10.988c-1.553-0.42-3.105-0.841-4.658-1.262c0.195,2.711,0.141,5.397-0.285,8.085
			c-0.501,3.153,4.316,4.507,4.82,1.329c0.499-3.14,0.693-6.24,0.465-9.415c-0.182-2.516-3.234-3.367-4.658-1.262
			c-2.71,4.002-3.901,8.705-3.342,13.512c0.364,3.131,4.896,3.298,5,0c0.137-4.316,0.286-8.669-1.215-12.79
			c-0.792-2.177-4.214-2.583-4.82,0c-1.003,4.266-2.329,8.393-4.623,12.153c1.522,0.642,3.046,1.284,4.568,1.926
			c0.98-3.714,1.837-7.444,2.375-11.25C957.24,89.042,952.423,87.683,951.974,90.865L951.974,90.865z"/>
	</g>
</g>
</svg>
