<?xml version="1.0" encoding="utf-8"?>
<!-- Generator: Adobe Illustrator 16.0.0, SVG Export Plug-In . SVG Version: 6.00 Build 0)  -->
<!DOCTYPE svg PUBLIC "-//W3C//DTD SVG 1.1//EN" "http://www.w3.org/Graphics/SVG/1.1/DTD/svg11.dtd">
<svg version="1.1" id="Layer_1" xmlns="http://www.w3.org/2000/svg" xmlns:xlink="http://www.w3.org/1999/xlink" x="0px" y="0px"
	 width="117px" height="23.892px" viewBox="-50.307 -9.242 117 23.892" enable-background="new -50.307 -9.242 117 23.892"
	 xml:space="preserve">
<g id="Layer_x0020_1">
	<polygon fill="#373435" points="-40.468,11.852 -49.443,11.852 -42.441,7.293 -42.441,-4.14 -46.865,-4.14 -50.307,-1.298 
		-50.307,-7.576 -40.468,-7.576 	"/>
	<polygon fill="#848688" points="-37.033,-7.576 -28.421,-7.576 -28.421,-1.416 -31.737,-4.14 -36.908,-4.14 -36.908,0.777 
		-32.234,0.777 -29.399,2.496 -32.234,4.239 -36.908,4.239 -36.908,11.852 -40.231,11.852 -40.231,-7.576 	"/>
	<g transform="matrix(0.865019 0 0 1 -218.047 -110.541)">
		<text transform="matrix(1 0 0 1 221.5638 110.0103)" fill="#373435" font-family="'LatinWide'" font-size="10.4077">THE</text>
		<text transform="matrix(1 0 0 1 265.0266 110.0103)" fill="#373435" font-family="'MyriadPro-Regular'" font-size="10.4077"> </text>
	</g>
	<g transform="matrix(0.865019 0 0 1 -218.047 -110.541)">
		<text transform="matrix(1 0 0 1 268.1741 110.0103)" fill="#848688" font-family="'LatinWide'" font-size="10.4077">FLOW</text>
	</g>
	<g transform="matrix(0.865019 0 0 1 -218.047 -110.541)">
		<text transform="matrix(1 0 0 1 221.5638 122.3086)" fill="#373435" font-family="'Stencil'" font-size="10.4077"> F    I    t    n    e    s    s</text>
	</g>
</g>
</svg>
