<?xml version="1.0" encoding="utf-8"?>
<!-- Generator: Adobe Illustrator 16.0.0, SVG Export Plug-In . SVG Version: 6.00 Build 0)  -->
<!DOCTYPE svg PUBLIC "-//W3C//DTD SVG 1.1//EN" "http://www.w3.org/Graphics/SVG/1.1/DTD/svg11.dtd">
<svg version="1.1" id="Layer_1" xmlns="http://www.w3.org/2000/svg" xmlns:xlink="http://www.w3.org/1999/xlink" x="0px" y="0px"
	 width="216.5px" height="44.75px" viewBox="-25.931 -5.441 216.5 44.75" enable-background="new -25.931 -5.441 216.5 44.75"
	 xml:space="preserve">
<g id="Layer_x0020_1">
	<polygon fill="#373435" points="-4.557,34.176 -20.536,34.176 -8.064,26.063 -8.064,5.717 -15.94,5.717 -22.074,10.775 
		-22.074,-0.413 -4.557,-0.413 	"/>
	<polygon fill="#848688" points="1.565,-0.413 16.901,-0.413 16.901,10.567 10.99,5.717 1.785,5.717 1.785,14.458 10.103,14.458 
		15.154,17.535 10.103,20.622 1.785,20.622 1.785,34.176 -4.128,34.176 -4.128,-0.413 	"/>
	<g transform="matrix(0.865019 0 0 1 -218.047 -110.541)">
		<text transform="matrix(1 0 0 1 275.7875 122.6738)" fill="#373435" font-family="'GoudyStout'" font-size="18.5323">THE</text>
		<text transform="matrix(1 0 0 1 353.1809 122.6738)" fill="#373435" font-family="'MyriadPro-Regular'" font-size="18.5323"> </text>
	</g>
	<g transform="matrix(0.865019 0 0 1 -218.047 -110.541)">
		<text transform="matrix(1 0 0 1 358.785 122.6738)" fill="#848688" font-family="'GoudyStout'" font-size="18.5323"> FLOW</text>
	</g>
	<g transform="matrix(0.865019 0 0 1 -218.047 -110.541)">
		<text transform="matrix(1 0 0 1 275.7875 144.5674)" fill="#373435" font-family="'Stencil'" font-size="18.5323"> F    I    t    n    e    s    s</text>
	</g>
</g>
</svg>
